<?xml version="1.0" standalone="yes"?>
<svg xmlns="http://www.w3.org/2000/svg" width="1024" height="516">
<path style="fill:#cf2028; stroke:none;" d="M0 0L0 516L1024 516L1024 0L0 0z"/>
<path style="fill:#d84a51; stroke:none;" d="M362 190L362 192L364 192L364 190L362 190z"/>
<path style="fill:#f3c7c9; stroke:none;" d="M364 190L364 192L400 192L400 190L364 190z"/>
<path style="fill:#e17479; stroke:none;" d="M400 190L400 192L402 192L402 190L400 190z"/>
<path style="fill:#de656b; stroke:none;" d="M568 190L568 192L570 192L570 190L568 190z"/>
<path style="fill:#e78f93; stroke:none;" d="M570 190L570 192L572 192L572 190L570 190z"/>
<path style="fill:#f3c7c9; stroke:none;" d="M572 190L572 192L614 192L614 190L572 190z"/>
<path style="fill:#d84a51; stroke:none;" d="M764 190L764 192L766 192L766 190L764 190z"/>
<path style="fill:#f3c7c9; stroke:none;" d="M766 190L766 192L802 192L802 190L766 190z"/>
<path style="fill:#de666c; stroke:none;" d="M802 190L802 192L804 192L804 190L802 190z"/>
<path style="fill:#e48287; stroke:none;" d="M362 192L362 194L364 194L364 192L362 192z"/>
<path style="fill:#ffffff; stroke:none;" d="M364 192C363.426 200.834 359.158 209.25 358 218C352.929 218 341.983 215.924 337.894 219.318C335.98 220.906 336.119 223.629 335.549 225.834C334.491 229.934 333.516 234.044 332 238L352 238C351.934 243.996 349.865 249.513 348.455 255.285C343.53 275.461 335.412 297.416 340 318C343.56 318.807 346.602 321.066 350.171 321.74C360.764 323.742 373.218 322 384 322C384.443 315.184 387.797 308.86 388 302C386.336 301.892 384.858 301.818 383.265 301.272C372.688 297.647 376.956 287.675 379.29 279.576C380.726 274.594 381.146 269.233 382.451 264.166C384.646 255.64 387.97 246.856 388 238L408 238C409.501 231.267 411.976 224.988 412 218L394 218C394.574 209.166 398.842 200.75 400 192L364 192z"/>
<path style="fill:#db585e; stroke:none;" d="M400 192L400 194L402 194L402 192L400 192z"/>
<path style="fill:#ea9da1; stroke:none;" d="M564 192L564 194L566 194L566 192L564 192z"/>
<path style="fill:#ffffff; stroke:none;" d="M560 196C558.824 201.186 556.128 206.191 554.4 211.271C553.611 213.594 553.027 215.936 550.656 217.142C546.692 219.158 540.339 218 536 218C535.928 224.476 534.313 231.963 532 238L548 238C544.475 253.814 540.569 269.575 536.451 285.285C533.187 297.734 530.786 310.058 526 322L548 322C552.53 321.991 557.436 321.743 560.741 318.14C566.904 311.419 568.356 301.621 570.241 293.075C572.849 281.248 575.859 269.188 579.291 257.576C580.67 252.909 580.532 242.226 584.573 239.318C588.671 236.368 597.177 238 602 238C603.501 231.267 605.976 224.988 606 218L588 218C589.229 215.66 589.777 212.686 591.309 210.564C595.403 204.896 603.974 206 610 206C610.313 201.184 611.983 196.917 612 192L583 192C578.289 192 572.796 191.23 568.184 192.278C565.206 192.955 563.007 195.228 560 196z"/>
<path style="fill:#f9e4e5; stroke:none;" d="M612 192L612 194L614 194L614 192L612 192z"/>
<path style="fill:#e79094; stroke:none;" d="M764 192L764 194L766 194L766 192L764 192z"/>
<path style="fill:#ffffff; stroke:none;" d="M766 192C764.107 200.492 760.258 209.258 760 218L738 218C737.928 224.476 736.313 231.963 734 238L754 238C753.93 244.312 751.607 250.068 750.241 256.166C745.661 276.611 737.347 297.121 742 318C745.56 318.807 748.602 321.066 752.171 321.74C762.764 323.742 775.218 322 786 322C786.442 315.184 789.797 308.86 790 302C777.179 301.166 777.939 292.901 779.925 282.925C782.857 268.196 789.556 253.044 790 238L810 238C811.454 231.477 813.802 224.716 814 218L796 218C796.573 209.166 800.843 200.75 802 192L766 192z"/>
<path style="fill:#d84a51; stroke:none;" d="M802 192L802 194L804 194L804 192L802 192z"/>
<path style="fill:#f0babc; stroke:none;" d="M362 194L362 196L364 196L364 194L362 194z"/>
<path style="fill:#d84a51; stroke:none;" d="M560 194L560 196L562 196L562 194L560 194z"/>
<path style="fill:#f9e3e4; stroke:none;" d="M562 194L562 196L564 196L564 194L562 194z"/>
<path style="fill:#edacaf; stroke:none;" d="M612 194L612 196L614 196L614 194L612 194z"/>
<path style="fill:#f3c8ca; stroke:none;" d="M764 194L764 196L766 196L766 194L764 194z"/>
<path style="fill:#f9e3e4; stroke:none;" d="M362 196L362 198L364 198L364 196L362 196z"/>
<path style="fill:#f6d6d7; stroke:none;" d="M398 196L398 198L400 198L400 196L398 196z"/>
<path style="fill:#d53c43; stroke:none;" d="M558 196L558 198L560 198L560 196L558 196z"/>
<path style="fill:#e17479; stroke:none;" d="M612 196L612 198L614 198L614 196L612 196z"/>
<path style="fill:#f0babc; stroke:none;" d="M800 196L800 198L802 198L802 196L800 196z"/>
<path style="fill:#d53c43; stroke:none;" d="M360 198L360 200L362 200L362 198L360 198z"/>
<path style="fill:#ea9ea1; stroke:none;" d="M398 198L398 200L400 200L400 198L398 198z"/>
<path style="fill:#f6d5d7; stroke:none;" d="M558 198L558 200L560 200L560 198L558 198z"/>
<path style="fill:#d53c43; stroke:none;" d="M612 198L612 200L614 200L614 198L612 198z"/>
<path style="fill:#db585e; stroke:none;" d="M762 198L762 200L764 200L764 198L762 198z"/>
<path style="fill:#e48287; stroke:none;" d="M800 198L800 200L802 200L802 198L800 198z"/>
<path style="fill:#e17479; stroke:none;" d="M360 200L360 202L362 202L362 200L360 200z"/>
<path style="fill:#de666c; stroke:none;" d="M398 200L398 202L400 202L400 200L398 200z"/>
<path style="fill:#e17479; stroke:none;" d="M556 200L556 202L558 202L558 200L556 200z"/>
<path style="fill:#f9e4e5; stroke:none;" d="M610 200L610 202L612 202L612 200L610 200z"/>
<path style="fill:#e79094; stroke:none;" d="M762 200L762 202L764 202L764 200L762 200z"/>
<path style="fill:#d84a51; stroke:none;" d="M800 200L800 202L802 202L802 200L800 200z"/>
<path style="fill:#edacaf; stroke:none;" d="M360 202L360 204L362 204L362 202L360 202z"/>
<path style="fill:#f9e3e4; stroke:none;" d="M556 202L556 204L558 204L558 202L556 202z"/>
<path style="fill:#edacaf; stroke:none;" d="M610 202L610 204L612 204L612 202L610 202z"/>
<path style="fill:#f3c8ca; stroke:none;" d="M762 202L762 204L764 204L764 202L762 202z"/>
<path style="fill:#f9e3e4; stroke:none;" d="M360 204L360 206L362 206L362 204L360 204z"/>
<path style="fill:#f6d6d7; stroke:none;" d="M396 204L396 206L398 206L398 204L396 204z"/>
<path style="fill:#de666c; stroke:none;" d="M554 204L554 206L556 206L556 204L554 204z"/>
<path style="fill:#e17479; stroke:none;" d="M610 204L610 206L612 206L612 204L610 204z"/>
<path style="fill:#f3c8ca; stroke:none;" d="M798 204L798 206L800 206L800 204L798 204z"/>
<path style="fill:#d53c43; stroke:none;" d="M358 206L358 208L360 208L360 206L358 206z"/>
<path style="fill:#ea9ea1; stroke:none;" d="M396 206L396 208L398 208L398 206L396 206z"/>
<path style="fill:#edacaf; stroke:none;" d="M554 206L554 208L556 208L556 206L554 206z"/>
<path style="fill:#f3c8ca; stroke:none;" d="M596 206L596 208L598 208L598 206L596 206z"/>
<path style="fill:#e79094; stroke:none;" d="M598 206L598 208L602 208L602 206L598 206z"/>
<path style="fill:#f3c8ca; stroke:none;" d="M602 206L602 208L610 208L610 206L602 206z"/>
<path style="fill:#d53c43; stroke:none;" d="M610 206L610 208L612 208L612 206L610 206z"/>
<path style="fill:#db585e; stroke:none;" d="M760 206L760 208L762 208L762 206L760 206z"/>
<path style="fill:#e79094; stroke:none;" d="M798 206L798 208L800 208L800 206L798 206z"/>
<path style="fill:#e17479; stroke:none;" d="M358 208L358 210L360 210L360 208L358 208z"/>
<path style="fill:#de666c; stroke:none;" d="M396 208L396 210L398 210L398 208L396 208z"/>
<path style="fill:#f9e3e4; stroke:none;" d="M554 208L554 210L556 210L556 208L554 208z"/>
<path style="fill:#e79094; stroke:none;" d="M592 208L592 210L594 210L594 208L592 208z"/>
<path style="fill:#e48287; stroke:none;" d="M760 208L760 210L762 210L762 208L760 208z"/>
<path style="fill:#db585e; stroke:none;" d="M798 208L798 210L800 210L800 208L798 208z"/>
<path style="fill:#edacaf; stroke:none;" d="M358 210L358 212L360 212L360 210L358 210z"/>
<path style="fill:#d53c43; stroke:none;" d="M396 210L396 212L398 212L398 210L396 210z"/>
<path style="fill:#d84a51; stroke:none;" d="M552 210L552 212L554 212L554 210L552 210z"/>
<path style="fill:#f0babc; stroke:none;" d="M590 210L590 212L592 212L592 210L590 210M760 210L760 212L762 212L762 210L760 210z"/>
<path style="fill:#f9e3e4; stroke:none;" d="M358 212L358 214L360 214L360 212L358 212z"/>
<path style="fill:#f9e4e5; stroke:none;" d="M394 212L394 214L396 214L396 212L394 212z"/>
<path style="fill:#e48287; stroke:none;" d="M552 212L552 214L554 214L554 212L552 212z"/>
<path style="fill:#d84a51; stroke:none;" d="M590 212L590 214L592 214L592 212L590 212z"/>
<path style="fill:#f3c8ca; stroke:none;" d="M796 212L796 214L798 214L798 212L796 212z"/>
<path style="fill:#ea9da1; stroke:none;" d="M394 214L394 218L396 218L396 214L394 214z"/>
<path style="fill:#f0babc; stroke:none;" d="M552 214L552 216L554 216L554 214L552 214z"/>
<path style="fill:#d84a51; stroke:none;" d="M758 214L758 216L760 216L760 214L758 214z"/>
<path style="fill:#e48186; stroke:none;" d="M796 214L796 218L798 218L798 214L796 214z"/>
<path style="fill:#d53c43; stroke:none;" d="M136 216L136 218L138 218L138 216L136 216z"/>
<path style="fill:#db575d; stroke:none;" d="M138 216L138 218L208 218L208 216L138 216z"/>
<path style="fill:#d53c43; stroke:none;" d="M208 216L208 218L210 218L210 216L208 216z"/>
<path style="fill:#db575d; stroke:none;" d="M258 216L258 218L324 218L324 216L258 216z"/>
<path style="fill:#d53c43; stroke:none;" d="M324 216L324 220L326 220L326 216L324 216z"/>
<path style="fill:#db575d; stroke:none;" d="M336 216L336 218L356 218L356 216L336 216z"/>
<path style="fill:#e48186; stroke:none;" d="M356 216L356 218L358 218L358 216L356 216z"/>
<path style="fill:#db575d; stroke:none;" d="M396 216L396 218L414 218L414 216L396 216M536 216L536 218L552 218L552 216L536 216z"/>
<path style="fill:#f6d5d7; stroke:none;" d="M588 216L588 218L590 218L590 216L588 216z"/>
<path style="fill:#db575d; stroke:none;" d="M590 216L590 218L608 218L608 216L590 216M636 216L636 218L708 218L708 216L636 216M738 216L738 218L758 218L758 216L738 216z"/>
<path style="fill:#ea9da1; stroke:none;" d="M758 216L758 218L760 218L760 216L758 216z"/>
<path style="fill:#db575d; stroke:none;" d="M798 216L798 218L816 218L816 216L798 216z"/>
<path style="fill:#db585e; stroke:none;" d="M128 218L128 220L130 220L130 218L128 218z"/>
<path style="fill:#edabae; stroke:none;" d="M130 218L130 220L132 220L132 218L130 218z"/>
<path style="fill:#ffffff; stroke:none;" d="M124 222C122.809 226.642 119.718 230.501 118.451 235.285C113.659 253.379 110.217 271.708 105.549 289.834C103.781 296.703 101.986 302.843 102 310C102.005 312.565 101.567 315.97 103.318 318.107C104.936 320.081 108.896 320.961 111.285 321.545C119.46 323.542 129.603 322 138 322L185 322C189.457 322 198.46 323.709 202.106 320.682C204.02 319.094 203.881 316.371 204.451 314.166C205.823 308.849 207.837 303.518 208 298L161 298C155.334 298 147.069 298.898 143.314 293.432C139.502 287.883 143.232 279.805 144 274L214 274C217.857 256.696 225.929 239.63 222 222C217.607 221.02 213.395 218.67 208.91 218.129C194.044 216.336 177.98 218 163 218C153.797 218 143.218 216.55 134.171 218.26C130.602 218.934 127.56 221.193 124 222z"/>
<path style="fill:#f6d5d7; stroke:none;" d="M212 218L212 220L214 220L214 218L212 218z"/>
<path style="fill:#edabae; stroke:none;" d="M214 218L214 220L216 220L216 218L214 218z"/>
<path style="fill:#de656b; stroke:none;" d="M216 218L216 220L218 220L218 218L216 218z"/>
<path style="fill:#db585e; stroke:none;" d="M248 218L248 220L250 220L250 218L248 218z"/>
<path style="fill:#ea9da1; stroke:none;" d="M250 218L250 220L252 220L252 218L250 218z"/>
<path style="fill:#f6d5d7; stroke:none;" d="M252 218L252 220L254 220L254 218L252 218z"/>
<path style="fill:#ffffff; stroke:none;" d="M276 288L276 290C272.653 292.479 271.04 295.839 266.711 297.272C261.916 298.858 255.991 298 251 298L222 298C221.5 305.706 218.763 314.789 216 322L283 322C293.378 322 306.012 321.415 312.776 312.255C321.646 300.242 317.961 283.408 306.946 273.785C299.692 267.449 289.433 262.916 283.26 255.471C278.943 250.265 278.692 240.97 286.184 238.51C290.864 236.974 297.122 238 302 238L320 238C320.072 231.524 321.687 224.037 324 218L273 218C263.333 218 252.964 217.052 244.479 222.715C239.683 225.915 238.876 230.68 237.549 235.834C236.41 240.261 235.557 244.258 236.129 248.91C238.042 264.479 256.492 271.174 267.522 279.223C270.909 281.694 272.76 285.599 276 288z"/>
<path style="fill:#f9e3e4; stroke:none;" d="M336 218L336 220L338 220L338 218L336 218z"/>
<path style="fill:#f3c8ca; stroke:none;" d="M412 218L412 220L414 220L414 218L412 218z"/>
<path style="fill:#e17479; stroke:none;" d="M424 218L424 220L426 220L426 218L424 218z"/>
<path style="fill:#ffffff; stroke:none;" d="M426 218C425.557 224.816 422.203 231.14 422 238C442.141 238 462.205 237.381 482 240C481.939 245.512 480.019 250.458 480 256L447 256C438.271 256 429.982 255.607 422.015 259.823C398.49 272.271 394.819 306.756 420.015 320.177C428.29 324.586 441.622 325.941 450.711 323.54C454.827 322.453 458.649 318.52 463 318.52C466.552 318.52 469.543 321.435 473.09 321.871C484.396 323.26 496.605 322 508 322C506.838 319.613 504.854 317.552 504.278 314.907C502.097 304.885 507.026 292.339 509.549 282.715C512.031 273.248 514.01 263.644 516.451 254.166C517.925 248.442 519.205 242.886 520.258 237.089C520.687 234.73 521.794 232.83 521.235 230.386C518.353 217.781 506.788 218 496 218L426 218z"/>
<path style="fill:#f6d5d7; stroke:none;" d="M510 218L510 220L512 220L512 218L510 218z"/>
<path style="fill:#edabae; stroke:none;" d="M512 218L512 220L514 220L514 218L512 218z"/>
<path style="fill:#db585e; stroke:none;" d="M514 218L514 220L516 220L516 218L514 218z"/>
<path style="fill:#f3c8ca; stroke:none;" d="M606 218L606 220L608 220L608 218L606 218z"/>
<path style="fill:#d53c43; stroke:none;" d="M626 218L626 220L628 220L628 218L626 218z"/>
<path style="fill:#ea9da1; stroke:none;" d="M628 218L628 220L630 220L630 218L628 218z"/>
<path style="fill:#f9e3e4; stroke:none;" d="M630 218L630 220L632 220L632 218L630 218z"/>
<path style="fill:#ffffff; stroke:none;" d="M702 322C702.091 313.761 705.972 306.276 706 298L659 298C653.334 298 645.069 298.898 641.314 293.432C637.726 288.21 641.98 279.802 642 274L714 274C714.008 263.39 717.812 252.417 720.451 242.166C721.773 237.028 723.648 229.638 721.157 224.519C719.385 220.878 715.143 219.767 711.575 218.711C702.208 215.937 689.739 218 680 218L646 218C639.264 218 631.715 217.41 625.759 221.273C619.19 225.534 617.325 233.827 615.759 240.925C613.194 252.556 610.297 264.279 607.545 275.83C605.093 286.119 600.183 297.401 600.005 308.004C599.951 311.218 599.156 316.321 601.893 318.687C608.492 324.392 622.057 322 630 322L702 322z"/>
<path style="fill:#f0b9bc; stroke:none;" d="M712 218L712 220L714 220L714 218L712 218z"/>
<path style="fill:#e17378; stroke:none;" d="M714 218L714 220L716 220L716 218L714 218z"/>
<path style="fill:#edacaf; stroke:none;" d="M814 218L814 220L816 220L816 218L814 218z"/>
<path style="fill:#e48287; stroke:none;" d="M826 218L826 220L828 220L828 218L826 218z"/>
<path style="fill:#ffffff; stroke:none;" d="M828 218C826.546 224.523 824.198 231.284 824 238C844.141 238 864.205 237.381 884 240C883.939 245.513 882.019 250.458 882 256C862.006 256 837.064 251.552 819.236 262.25C804.987 270.801 800.241 291.752 807.823 305.985C811.633 313.139 819.543 319.33 826.804 322.581C833.113 325.406 847.007 325.509 853.561 323.272C856.919 322.125 859.568 318.847 863.079 318.332C867.598 317.669 871.543 321.623 876.039 321.946C887.242 322.752 898.766 322 910 322C908.837 319.613 906.854 317.552 906.278 314.907C904.003 304.455 908.938 292.678 911.549 282.715C914.201 272.602 916.044 262.288 918.455 252.17C920.355 244.195 925.089 232.598 921.157 224.519C917.318 216.633 904.056 218 897 218L828 218z"/>
<path style="fill:#f6d5d7; stroke:none;" d="M912 218L912 220L914 220L914 218L912 218z"/>
<path style="fill:#ea9da1; stroke:none;" d="M914 218L914 220L916 220L916 218L914 218z"/>
<path style="fill:#d53c43; stroke:none;" d="M916 218L916 220L918 220L918 218L916 218M124 220L124 222L126 222L126 220L124 220z"/>
<path style="fill:#f3c7c9; stroke:none;" d="M126 220L126 222L128 222L128 220L126 220z"/>
<path style="fill:#f9e3e4; stroke:none;" d="M218 220L218 222L220 222L220 220L218 220z"/>
<path style="fill:#d84a51; stroke:none;" d="M220 220L220 222L222 222L222 220L220 220z"/>
<path style="fill:#db585e; stroke:none;" d="M244 220L244 222L246 222L246 220L244 220z"/>
<path style="fill:#f3c7c9; stroke:none;" d="M246 220L246 222L248 222L248 220L246 220z"/>
<path style="fill:#f9e4e5; stroke:none;" d="M322 220L322 222L324 222L324 220L322 220z"/>
<path style="fill:#d53c43; stroke:none;" d="M334 220L334 222L336 222L336 220L334 220z"/>
<path style="fill:#e79094; stroke:none;" d="M412 220L412 222L414 222L414 220L412 220z"/>
<path style="fill:#ea9ea1; stroke:none;" d="M424 220L424 222L426 222L426 220L424 220z"/>
<path style="fill:#edabae; stroke:none;" d="M516 220L516 222L518 222L518 220L516 220z"/>
<path style="fill:#d84a51; stroke:none;" d="M534 220L534 222L536 222L536 220L534 220z"/>
<path style="fill:#e79094; stroke:none;" d="M606 220L606 222L608 222L608 220L606 220z"/>
<path style="fill:#e78f93; stroke:none;" d="M624 220L624 222L626 222L626 220L624 220z"/>
<path style="fill:#e17479; stroke:none;" d="M718 220L718 222L720 222L720 220L718 220z"/>
<path style="fill:#d84a51; stroke:none;" d="M736 220L736 222L738 222L738 220L736 220z"/>
<path style="fill:#e17479; stroke:none;" d="M814 220L814 222L816 222L816 220L814 220z"/>
<path style="fill:#f0babc; stroke:none;" d="M826 220L826 222L828 222L828 220L826 220z"/>
<path style="fill:#ea9da1; stroke:none;" d="M918 220L918 222L920 222L920 220L918 220z"/>
<path style="fill:#d53c43; stroke:none;" d="M122 222L122 224L124 224L124 222L122 222z"/>
<path style="fill:#d84a51; stroke:none;" d="M222 222L222 224L224 224L224 222L222 222z"/>
<path style="fill:#e17479; stroke:none;" d="M242 222L242 224L244 224L244 222L242 222z"/>
<path style="fill:#edacaf; stroke:none;" d="M322 222L322 224L324 224L324 222L322 222z"/>
<path style="fill:#e17479; stroke:none;" d="M334 222L334 224L336 224L336 222L334 222z"/>
<path style="fill:#db585e; stroke:none;" d="M412 222L412 224L414 224L414 222L412 222z"/>
<path style="fill:#f6d5d7; stroke:none;" d="M424 222L424 224L426 224L426 222L424 222z"/>
<path style="fill:#edabae; stroke:none;" d="M518 222L518 224L520 224L520 222L518 222z"/>
<path style="fill:#e48287; stroke:none;" d="M534 222L534 224L536 224L536 222L534 222z"/>
<path style="fill:#db585e; stroke:none;" d="M606 222L606 224L608 224L608 222L606 222z"/>
<path style="fill:#edabae; stroke:none;" d="M622 222L622 224L624 224L624 222L622 222z"/>
<path style="fill:#e79094; stroke:none;" d="M720 222L720 224L722 224L722 222L720 222z"/>
<path style="fill:#e48287; stroke:none;" d="M736 222L736 224L738 224L738 222L736 222z"/>
<path style="fill:#d53c43; stroke:none;" d="M814 222L814 224L816 224L816 222L814 222z"/>
<path style="fill:#ea9ea1; stroke:none;" d="M920 222L920 224L922 224L922 222L920 222z"/>
<path style="fill:#f6d5d7; stroke:none;" d="M122 224L122 226L124 226L124 224L122 224z"/>
<path style="fill:#f9e3e4; stroke:none;" d="M222 224L222 226L224 226L224 224L222 224z"/>
<path style="fill:#de666c; stroke:none;" d="M240 224L240 226L242 226L242 224L240 224z"/>
<path style="fill:#e48287; stroke:none;" d="M322 224L322 226L324 226L324 224L322 224z"/>
<path style="fill:#ea9ea1; stroke:none;" d="M334 224L334 226L336 226L336 224L334 224z"/>
<path style="fill:#db585e; stroke:none;" d="M520 224L520 226L522 226L522 224L520 224z"/>
<path style="fill:#f0babc; stroke:none;" d="M534 224L534 226L536 226L536 224L534 224z"/>
<path style="fill:#ea9ea1; stroke:none;" d="M620 224L620 226L622 226L622 224L620 224z"/>
<path style="fill:#d53c43; stroke:none;" d="M722 224L722 226L724 226L724 224L722 224z"/>
<path style="fill:#f0babc; stroke:none;" d="M736 224L736 226L738 226L738 224L736 224z"/>
<path style="fill:#f9e4e5; stroke:none;" d="M812 224L812 226L814 226L814 224L812 224z"/>
<path style="fill:#d84a51; stroke:none;" d="M824 224L824 226L826 226L826 224L824 224M922 224L922 226L924 226L924 224L922 224z"/>
<path style="fill:#e79094; stroke:none;" d="M120 226L120 228L122 228L122 226L120 226z"/>
<path style="fill:#db585e; stroke:none;" d="M224 226L224 228L226 228L226 226L224 226z"/>
<path style="fill:#d84a51; stroke:none;" d="M322 226L322 228L324 228L324 226L322 226z"/>
<path style="fill:#f6d5d7; stroke:none;" d="M334 226L334 228L336 228L336 226L334 226z"/>
<path style="fill:#f3c8ca; stroke:none;" d="M410 226L410 228L412 228L412 226L410 226z"/>
<path style="fill:#de666c; stroke:none;" d="M422 226L422 228L424 228L424 226L422 226z"/>
<path style="fill:#edacaf; stroke:none;" d="M520 226L520 228L522 228L522 226L520 226z"/>
<path style="fill:#f3c8ca; stroke:none;" d="M604 226L604 228L606 228L606 226L604 226z"/>
<path style="fill:#d84a51; stroke:none;" d="M618 226L618 228L620 228L620 226L618 226z"/>
<path style="fill:#ea9ea1; stroke:none;" d="M722 226L722 228L724 228L724 226L722 226z"/>
<path style="fill:#f0babc; stroke:none;" d="M812 226L812 228L814 228L814 226L812 226z"/>
<path style="fill:#e48287; stroke:none;" d="M824 226L824 228L826 228L826 226L824 226z"/>
<path style="fill:#ea9ea1; stroke:none;" d="M922 226L922 228L924 228L924 226L922 226z"/>
<path style="fill:#e79094; stroke:none;" d="M224 228L224 232L226 232L226 228L224 228M238 228L238 230L240 230L240 228L238 228M410 228L410 230L412 230L412 228L410 228z"/>
<path style="fill:#ea9ea1; stroke:none;" d="M422 228L422 230L424 230L424 228L422 228z"/>
<path style="fill:#f6d5d7; stroke:none;" d="M520 228L520 230L522 230L522 228L520 228z"/>
<path style="fill:#d84a51; stroke:none;" d="M532 228L532 230L534 230L534 228L532 228z"/>
<path style="fill:#e79094; stroke:none;" d="M604 228L604 230L606 230L606 228L604 228z"/>
<path style="fill:#f0babc; stroke:none;" d="M618 228L618 230L620 230L620 228L618 228z"/>
<path style="fill:#f3c8ca; stroke:none;" d="M722 228L722 234L724 234L724 228L722 228z"/>
<path style="fill:#d84a51; stroke:none;" d="M734 228L734 230L736 230L736 228L734 228z"/>
<path style="fill:#e48287; stroke:none;" d="M812 228L812 230L814 230L814 228L812 228z"/>
<path style="fill:#edacaf; stroke:none;" d="M824 228L824 230L826 230L826 228L824 228z"/>
<path style="fill:#f3c8ca; stroke:none;" d="M922 228L922 236L924 236L924 228L922 228z"/>
<path style="fill:#e17479; stroke:none;" d="M118 230L118 232L120 232L120 230L118 230z"/>
<path style="fill:#f0babc; stroke:none;" d="M320 230L320 232L322 232L322 230L320 230z"/>
<path style="fill:#de666c; stroke:none;" d="M332 230L332 232L334 232L334 230L332 230z"/>
<path style="fill:#db585e; stroke:none;" d="M410 230L410 232L412 232L412 230L410 230z"/>
<path style="fill:#f6d5d7; stroke:none;" d="M422 230L422 232L424 232L424 230L422 230z"/>
<path style="fill:#e48287; stroke:none;" d="M532 230L532 232L534 232L534 230L532 230z"/>
<path style="fill:#db585e; stroke:none;" d="M604 230L604 232L606 232L606 230L604 230z"/>
<path style="fill:#d53c43; stroke:none;" d="M616 230L616 232L618 232L618 230L616 230z"/>
<path style="fill:#e48287; stroke:none;" d="M734 230L734 232L736 232L736 230L734 230z"/>
<path style="fill:#d84a51; stroke:none;" d="M812 230L812 232L814 232L814 230L812 230z"/>
<path style="fill:#f9e3e4; stroke:none;" d="M824 230L824 232L826 232L826 230L824 230z"/>
<path style="fill:#f0babc; stroke:none;" d="M118 232L118 234L120 234L120 232L118 232z"/>
<path style="fill:#e17479; stroke:none;" d="M224 232L224 234L226 234L226 232L224 232z"/>
<path style="fill:#de666c; stroke:none;" d="M236 232L236 234L238 234L238 232L236 232z"/>
<path style="fill:#e48287; stroke:none;" d="M320 232L320 234L322 234L322 232L320 232z"/>
<path style="fill:#ea9ea1; stroke:none;" d="M332 232L332 234L334 234L334 232L332 232z"/>
<path style="fill:#f0babc; stroke:none;" d="M532 232L532 234L534 234L534 232L532 232z"/>
<path style="fill:#e48287; stroke:none;" d="M616 232L616 234L618 234L618 232L616 232z"/>
<path style="fill:#f0babc; stroke:none;" d="M734 232L734 234L736 234L736 232L734 232z"/>
<path style="fill:#d53c43; stroke:none;" d="M822 232L822 234L824 234L824 232L822 232z"/>
<path style="fill:#db585e; stroke:none;" d="M224 234L224 236L226 236L226 234L224 234z"/>
<path style="fill:#edacaf; stroke:none;" d="M236 234L236 236L238 236L238 234L236 234z"/>
<path style="fill:#db585e; stroke:none;" d="M320 234L320 236L322 236L322 234L320 234z"/>
<path style="fill:#f6d5d7; stroke:none;" d="M332 234L332 236L334 236L334 234L332 234z"/>
<path style="fill:#f6d6d7; stroke:none;" d="M408 234L408 236L410 236L410 234L408 234z"/>
<path style="fill:#db585e; stroke:none;" d="M420 234L420 236L422 236L422 234L420 234z"/>
<path style="fill:#f3c8ca; stroke:none;" d="M520 234L520 236L522 236L522 234L520 234z"/>
<path style="fill:#f9e3e4; stroke:none;" d="M532 234L532 236L534 236L534 234L532 234z"/>
<path style="fill:#f6d6d7; stroke:none;" d="M602 234L602 236L604 236L604 234L602 234z"/>
<path style="fill:#f0babc; stroke:none;" d="M616 234L616 236L618 236L618 234L616 234z"/>
<path style="fill:#e79094; stroke:none;" d="M722 234L722 236L724 236L724 234L722 234z"/>
<path style="fill:#f9e3e4; stroke:none;" d="M734 234L734 236L736 236L736 234L734 234z"/>
<path style="fill:#f0babc; stroke:none;" d="M810 234L810 236L812 236L812 234L810 234z"/>
<path style="fill:#e17479; stroke:none;" d="M822 234L822 236L824 236L824 234L822 234z"/>
<path style="fill:#db585e; stroke:none;" d="M116 236L116 238L118 238L118 236L116 236z"/>
<path style="fill:#f6d5d7; stroke:none;" d="M236 236L236 238L238 238L238 236L236 236z"/>
<path style="fill:#d53c43; stroke:none;" d="M330 236L330 240L332 240L332 236L330 236z"/>
<path style="fill:#ea9ea1; stroke:none;" d="M408 236L408 238L410 238L410 236L408 236M420 236L420 240L422 240L422 236L420 236z"/>
<path style="fill:#edacaf; stroke:none;" d="M520 236L520 238L522 238L522 236L520 236z"/>
<path style="fill:#d53c43; stroke:none;" d="M530 236L530 240L532 240L532 236L530 236z"/>
<path style="fill:#ea9ea1; stroke:none;" d="M602 236L602 238L604 238L604 236L602 236z"/>
<path style="fill:#de666c; stroke:none;" d="M722 236L722 238L724 238L724 236L722 236z"/>
<path style="fill:#d53c43; stroke:none;" d="M732 236L732 240L734 240L734 236L732 236z"/>
<path style="fill:#e48287; stroke:none;" d="M810 236L810 238L812 238L812 236L810 236z"/>
<path style="fill:#edacaf; stroke:none;" d="M822 236L822 240L824 240L824 236L822 236z"/>
<path style="fill:#e79094; stroke:none;" d="M922 236L922 238L924 238L924 236L922 236M116 238L116 240L118 240L118 238L116 238z"/>
<path style="fill:#f9e4e5; stroke:none;" d="M156 238L156 240L158 240L158 238L156 238z"/>
<path style="fill:#f3c8ca; stroke:none;" d="M158 238L158 240L160 240L160 238L158 238z"/>
<path style="fill:#e79094; stroke:none;" d="M160 238L160 240L180 240L180 238L160 238z"/>
<path style="fill:#edacaf; stroke:none;" d="M180 238L180 240L182 240L182 238L180 238z"/>
<path style="fill:#f9e4e5; stroke:none;" d="M182 238L182 240L184 240L184 238L182 238z"/>
<path style="fill:#f3c8ca; stroke:none;" d="M222 238L222 240L224 240L224 238L222 238z"/>
<path style="fill:#f9e4e5; stroke:none;" d="M284 238L284 240L286 240L286 238L284 238z"/>
<path style="fill:#f3c8ca; stroke:none;" d="M286 238L286 240L318 240L318 238L286 238z"/>
<path style="fill:#ea9ea1; stroke:none;" d="M318 238L318 240L320 240L320 238L318 238z"/>
<path style="fill:#e79094; stroke:none;" d="M332 238L332 240L352 240L352 238L332 238z"/>
<path style="fill:#f9e4e5; stroke:none;" d="M388 238L388 240L390 240L390 238L388 238z"/>
<path style="fill:#e79094; stroke:none;" d="M390 238L390 240L408 240L408 238L390 238z"/>
<path style="fill:#d84a51; stroke:none;" d="M408 238L408 240L410 240L410 238L408 238z"/>
<path style="fill:#f3c8ca; stroke:none;" d="M422 238L422 240L478 240L478 238L422 238z"/>
<path style="fill:#e48287; stroke:none;" d="M520 238L520 240L522 240L522 238L520 238z"/>
<path style="fill:#e79094; stroke:none;" d="M532 238L532 240L546 240L546 238L532 238z"/>
<path style="fill:#f3c8ca; stroke:none;" d="M546 238L546 242L548 242L548 238L546 238z"/>
<path style="fill:#e79094; stroke:none;" d="M584 238L584 240L602 240L602 238L584 238z"/>
<path style="fill:#d84a51; stroke:none;" d="M602 238L602 240L604 240L604 238L602 238z"/>
<path style="fill:#db585e; stroke:none;" d="M614 238L614 240L616 240L616 238L614 238z"/>
<path style="fill:#f3c8ca; stroke:none;" d="M656 238L656 240L658 240L658 238L656 238z"/>
<path style="fill:#e79094; stroke:none;" d="M658 238L658 240L680 240L680 238L658 238z"/>
<path style="fill:#f3c8ca; stroke:none;" d="M680 238L680 240L682 240L682 238L680 238z"/>
<path style="fill:#e79094; stroke:none;" d="M734 238L734 240L754 240L754 238L734 238z"/>
<path style="fill:#f3c8ca; stroke:none;" d="M790 238L790 240L792 240L792 238L790 238z"/>
<path style="fill:#e79094; stroke:none;" d="M792 238L792 240L810 240L810 238L792 238z"/>
<path style="fill:#d53c43; stroke:none;" d="M810 238L810 240L812 240L812 238L810 238z"/>
<path style="fill:#f3c8ca; stroke:none;" d="M824 238L824 240L880 240L880 238L824 238z"/>
<path style="fill:#de666c; stroke:none;" d="M922 238L922 240L924 240L924 238L922 238z"/>
<path style="fill:#f3c8ca; stroke:none;" d="M116 240L116 242L118 242L118 240L116 240z"/>
<path style="fill:#ea9ea1; stroke:none;" d="M154 240L154 242L156 242L156 240L154 240z"/>
<path style="fill:#cf2028; stroke:none;" d="M152 254L182 254C183.088 249.121 183.999 245.083 184 240L165 240C162.123 240.001 158.317 239.443 155.875 241.314C152.101 244.206 152.015 249.753 152 254z"/>
<path style="fill:#f0babc; stroke:none;" d="M184 240L184 242L186 242L186 240L184 240z"/>
<path style="fill:#e79094; stroke:none;" d="M222 240L222 242L224 242L224 240L222 240z"/>
<path style="fill:#db585e; stroke:none;" d="M234 240L234 242L236 242L236 240L234 240z"/>
<path style="fill:#e17479; stroke:none;" d="M282 240L282 242L284 242L284 240L282 240z"/>
<path style="fill:#db585e; stroke:none;" d="M350 240L350 242L352 242L352 240L350 240z"/>
<path style="fill:#e79094; stroke:none;" d="M388 240L388 242L390 242L390 240L388 240z"/>
<path style="fill:#f6d6d7; stroke:none;" d="M480 240L480 242L482 242L482 240L480 240z"/>
<path style="fill:#d84a51; stroke:none;" d="M520 240L520 242L522 242L522 240L520 240z"/>
<path style="fill:#f9e4e5; stroke:none;" d="M582 240L582 242L584 242L584 240L582 240z"/>
<path style="fill:#e79094; stroke:none;" d="M614 240L614 242L616 242L616 240L614 240z"/>
<path style="fill:#f6d6d7; stroke:none;" d="M652 240L652 242L654 242L654 240L652 240z"/>
<path style="fill:#d53c43; stroke:none;" d="M654 240L654 242L656 242L656 240L654 240z"/>
<path style="fill:#cf2028; stroke:none;" d="M652 242L650 254L671 254C673.791 253.999 677.783 254.611 680.107 252.682C682.546 250.658 682.085 246.521 684 244L684 242C674.977 237.305 661.418 239.901 652 242z"/>
<path style="fill:#e48287; stroke:none;" d="M682 240L682 242L684 242L684 240L682 240z"/>
<path style="fill:#f6d6d7; stroke:none;" d="M720 240L720 242L722 242L722 240L720 240z"/>
<path style="fill:#de666c; stroke:none;" d="M752 240L752 242L754 242L754 240L752 240z"/>
<path style="fill:#e17479; stroke:none;" d="M790 240L790 242L792 242L792 240L790 240z"/>
<path style="fill:#f9e4e5; stroke:none;" d="M882 240L882 242L884 242L884 240L882 240z"/>
<path style="fill:#d53c43; stroke:none;" d="M922 240L922 242L924 242L924 240L922 240z"/>
<path style="fill:#f0babc; stroke:none;" d="M152 242L152 244L154 244L154 242L152 242z"/>
<path style="fill:#e79094; stroke:none;" d="M184 242L184 246L186 246L186 242L184 242z"/>
<path style="fill:#db585e; stroke:none;" d="M222 242L222 244L224 244L224 242L222 242z"/>
<path style="fill:#e79094; stroke:none;" d="M234 242L234 248L236 248L236 242L234 242z"/>
<path style="fill:#e48287; stroke:none;" d="M280 242L280 244L282 244L282 242L280 242M350 242L350 244L352 244L352 242L350 242z"/>
<path style="fill:#db585e; stroke:none;" d="M388 242L388 244L390 244L390 242L388 242z"/>
<path style="fill:#e79094; stroke:none;" d="M480 242L480 246L482 246L482 242L480 242z"/>
<path style="fill:#edacaf; stroke:none;" d="M582 242L582 244L584 244L584 242L582 242z"/>
<path style="fill:#f3c8ca; stroke:none;" d="M614 242L614 244L616 244L616 242L614 242z"/>
<path style="fill:#ea9ea1; stroke:none;" d="M720 242L720 244L722 244L722 242L720 242M752 242L752 244L754 244L754 242L752 242z"/>
<path style="fill:#d53c43; stroke:none;" d="M790 242L790 244L792 244L792 242L790 242z"/>
<path style="fill:#e79094; stroke:none;" d="M882 242L882 246L884 246L884 242L882 242z"/>
<path style="fill:#f9e4e5; stroke:none;" d="M920 242L920 244L922 244L922 242L920 242z"/>
<path style="fill:#db585e; stroke:none;" d="M114 244L114 246L116 246L116 244L114 244M152 244L152 246L154 246L154 244L152 244z"/>
<path style="fill:#f0babc; stroke:none;" d="M350 244L350 246L352 246L352 244L350 244z"/>
<path style="fill:#f3c8ca; stroke:none;" d="M518 244L518 246L520 246L520 244L518 244z"/>
<path style="fill:#d84a51; stroke:none;" d="M544 244L544 246L546 246L546 244L544 244z"/>
<path style="fill:#e17479; stroke:none;" d="M582 244L582 246L584 246L584 244L582 244z"/>
<path style="fill:#ea9ea1; stroke:none;" d="M650 244L650 246L652 246L652 244L650 244z"/>
<path style="fill:#d84a51; stroke:none;" d="M682 244L682 246L684 246L684 244L682 244z"/>
<path style="fill:#de666c; stroke:none;" d="M720 244L720 246L722 246L722 244L720 244z"/>
<path style="fill:#f6d5d7; stroke:none;" d="M752 244L752 246L754 246L754 244L752 244z"/>
<path style="fill:#f9e4e5; stroke:none;" d="M788 244L788 246L790 246L790 244L788 244z"/>
<path style="fill:#edacaf; stroke:none;" d="M920 244L920 246L922 246L922 244L920 244z"/>
<path style="fill:#e79094; stroke:none;" d="M114 246L114 248L116 248L116 246L114 246z"/>
<path style="fill:#f0babc; stroke:none;" d="M184 246L184 248L186 248L186 246L184 246z"/>
<path style="fill:#f6d6d7; stroke:none;" d="M220 246L220 248L222 248L222 246L220 246z"/>
<path style="fill:#f3c8ca; stroke:none;" d="M386 246L386 248L388 248L388 246L386 246z"/>
<path style="fill:#f0babc; stroke:none;" d="M480 246L480 248L482 248L482 246L480 246z"/>
<path style="fill:#e79094; stroke:none;" d="M518 246L518 248L520 248L520 246L518 246z"/>
<path style="fill:#e48287; stroke:none;" d="M544 246L544 248L546 248L546 246L544 246z"/>
<path style="fill:#d53c43; stroke:none;" d="M582 246L582 248L584 248L584 246L582 246z"/>
<path style="fill:#d84a51; stroke:none;" d="M612 246L612 248L614 248L614 246L612 246z"/>
<path style="fill:#db585e; stroke:none;" d="M650 246L650 248L652 248L652 246L650 246z"/>
<path style="fill:#e17479; stroke:none;" d="M682 246L682 248L684 248L684 246L682 246z"/>
<path style="fill:#f0babc; stroke:none;" d="M788 246L788 248L790 248L790 246L788 246z"/>
<path style="fill:#f3c8ca; stroke:none;" d="M882 246L882 248L884 248L884 246L882 246z"/>
<path style="fill:#e17479; stroke:none;" d="M920 246L920 248L922 248L922 246L920 246z"/>
<path style="fill:#f3c8ca; stroke:none;" d="M114 248L114 250L116 250L116 248L114 248z"/>
<path style="fill:#f0babc; stroke:none;" d="M150 248L150 250L152 250L152 248L150 248z"/>
<path style="fill:#ea9ea1; stroke:none;" d="M220 248L220 250L222 250L222 248L220 248z"/>
<path style="fill:#db585e; stroke:none;" d="M234 248L234 250L236 250L236 248L234 248M280 248L280 250L282 250L282 248L280 248z"/>
<path style="fill:#d84a51; stroke:none;" d="M348 248L348 250L350 250L350 248L348 248z"/>
<path style="fill:#e79094; stroke:none;" d="M386 248L386 250L388 250L388 248L386 248z"/>
<path style="fill:#db585e; stroke:none;" d="M518 248L518 250L520 250L520 248L518 248z"/>
<path style="fill:#f0babc; stroke:none;" d="M544 248L544 250L546 250L546 248L544 248z"/>
<path style="fill:#e48287; stroke:none;" d="M612 248L612 250L614 250L614 248L612 248z"/>
<path style="fill:#edacaf; stroke:none;" d="M682 248L682 250L684 250L684 248L682 248z"/>
<path style="fill:#f9e4e5; stroke:none;" d="M718 248L718 250L720 250L720 248L718 248z"/>
<path style="fill:#de666c; stroke:none;" d="M750 248L750 250L752 250L752 248L750 248z"/>
<path style="fill:#e48287; stroke:none;" d="M788 248L788 250L790 250L790 248L788 248z"/>
<path style="fill:#d53c43; stroke:none;" d="M920 248L920 250L922 250L922 248L920 248z"/>
<path style="fill:#e48287; stroke:none;" d="M150 250L150 252L152 252L152 250L150 250z"/>
<path style="fill:#d84a51; stroke:none;" d="M182 250L182 252L184 252L184 250L182 250z"/>
<path style="fill:#de666c; stroke:none;" d="M220 250L220 252L222 252L222 250L220 250z"/>
<path style="fill:#ea9ea1; stroke:none;" d="M280 250L280 252L282 252L282 250L280 250z"/>
<path style="fill:#e48287; stroke:none;" d="M348 250L348 252L350 252L350 250L348 250z"/>
<path style="fill:#db585e; stroke:none;" d="M386 250L386 252L388 252L388 250L386 250z"/>
<path style="fill:#d84a51; stroke:none;" d="M478 250L478 252L480 252L480 250L478 250z"/>
<path style="fill:#f0babc; stroke:none;" d="M580 250L580 252L582 252L582 250L580 250M612 250L612 252L614 252L614 250L612 250M648 250L648 252L650 252L650 250L648 250z"/>
<path style="fill:#f9e3e4; stroke:none;" d="M682 250L682 252L684 252L684 250L682 250z"/>
<path style="fill:#edacaf; stroke:none;" d="M718 250L718 252L720 252L720 250L718 250z"/>
<path style="fill:#e79094; stroke:none;" d="M750 250L750 252L752 252L752 250L750 250z"/>
<path style="fill:#d84a51; stroke:none;" d="M788 250L788 252L790 252L790 250L788 250z"/>
<path style="fill:#db585e; stroke:none;" d="M880 250L880 252L882 252L882 250L880 250z"/>
<path style="fill:#f9e4e5; stroke:none;" d="M918 250L918 252L920 252L920 250L918 250z"/>
<path style="fill:#d84a51; stroke:none;" d="M112 252L112 254L114 254L114 252L112 252z"/>
<path style="fill:#d53c43; stroke:none;" d="M150 252L150 254L152 254L152 252L150 252z"/>
<path style="fill:#e48287; stroke:none;" d="M182 252L182 254L184 254L184 252L182 252z"/>
<path style="fill:#f0babc; stroke:none;" d="M236 252L236 254L238 254L238 252L236 252z"/>
<path style="fill:#d84a51; stroke:none;" d="M282 252L282 254L284 254L284 252L282 252z"/>
<path style="fill:#f0babc; stroke:none;" d="M348 252L348 254L350 254L350 252L348 252z"/>
<path style="fill:#e48287; stroke:none;" d="M478 252L478 254L480 254L480 252L478 252z"/>
<path style="fill:#f3c8ca; stroke:none;" d="M516 252L516 254L518 254L518 252L516 252z"/>
<path style="fill:#d84a51; stroke:none;" d="M542 252L542 254L544 254L544 252L542 252z"/>
<path style="fill:#e48287; stroke:none;" d="M580 252L580 254L582 254L582 252L580 252M648 252L648 254L650 254L650 252L648 252z"/>
<path style="fill:#d53c43; stroke:none;" d="M680 252L680 254L682 254L682 252L680 252z"/>
<path style="fill:#e17479; stroke:none;" d="M718 252L718 254L720 254L720 252L718 252z"/>
<path style="fill:#f3c8ca; stroke:none;" d="M750 252L750 254L752 254L752 252L750 252z"/>
<path style="fill:#e79094; stroke:none;" d="M880 252L880 254L882 254L882 252L880 252z"/>
<path style="fill:#edacaf; stroke:none;" d="M918 252L918 254L920 254L920 252L918 252z"/>
<path style="fill:#e48287; stroke:none;" d="M112 254L112 256L114 256L114 254L112 254z"/>
<path style="fill:#e78f93; stroke:none;" d="M150 254L150 256L182 256L182 254L150 254z"/>
<path style="fill:#f6d5d7; stroke:none;" d="M182 254L182 256L184 256L184 254L182 254z"/>
<path style="fill:#f6d6d7; stroke:none;" d="M218 254L218 256L220 256L220 254L218 254z"/>
<path style="fill:#db585e; stroke:none;" d="M236 254L236 256L238 256L238 254L236 254z"/>
<path style="fill:#f6d5d7; stroke:none;" d="M282 254L282 256L284 256L284 254L282 254z"/>
<path style="fill:#f6d6d7; stroke:none;" d="M384 254L384 256L386 256L386 254L384 254z"/>
<path style="fill:#db575d; stroke:none;" d="M432 254L432 256L438 256L438 254L432 254z"/>
<path style="fill:#e78f93; stroke:none;" d="M438 254L438 256L478 256L478 254L438 254z"/>
<path style="fill:#f6d5d7; stroke:none;" d="M478 254L478 256L480 256L480 254L478 254z"/>
<path style="fill:#e79094; stroke:none;" d="M516 254L516 256L518 256L518 254L516 254z"/>
<path style="fill:#e48287; stroke:none;" d="M542 254L542 256L544 256L544 254L542 254z"/>
<path style="fill:#d84a51; stroke:none;" d="M580 254L580 256L582 256L582 254L580 254M610 254L610 256L612 256L612 254L610 254z"/>
<path style="fill:#edabae; stroke:none;" d="M648 254L648 256L650 256L650 254L648 254z"/>
<path style="fill:#e78f93; stroke:none;" d="M650 254L650 256L680 256L680 254L650 254z"/>
<path style="fill:#edabae; stroke:none;" d="M680 254L680 256L682 256L682 254L680 254z"/>
<path style="fill:#d53c43; stroke:none;" d="M718 254L718 256L720 256L720 254L718 254z"/>
<path style="fill:#f0babc; stroke:none;" d="M786 254L786 256L788 256L788 254L786 254z"/>
<path style="fill:#db575d; stroke:none;" d="M834 254L834 256L838 256L838 254L834 254z"/>
<path style="fill:#e17378; stroke:none;" d="M838 254L838 256L840 256L840 254L838 254z"/>
<path style="fill:#e78f93; stroke:none;" d="M840 254L840 256L880 256L880 254L840 254z"/>
<path style="fill:#f9e3e4; stroke:none;" d="M880 254L880 256L882 256L882 254L880 254z"/>
<path style="fill:#e17479; stroke:none;" d="M918 254L918 256L920 256L920 254L918 254z"/>
<path style="fill:#f0babc; stroke:none;" d="M112 256L112 258L114 258L114 256L112 256z"/>
<path style="fill:#ea9ea1; stroke:none;" d="M218 256L218 258L220 258L220 256L218 256z"/>
<path style="fill:#f0babc; stroke:none;" d="M238 256L238 258L240 258L240 256L238 256z"/>
<path style="fill:#f6d5d7; stroke:none;" d="M284 256L284 258L286 258L286 256L284 256z"/>
<path style="fill:#d84a51; stroke:none;" d="M286 256L286 258L288 258L288 256L286 256z"/>
<path style="fill:#d53c43; stroke:none;" d="M346 256L346 258L348 258L348 256L346 256z"/>
<path style="fill:#ea9ea1; stroke:none;" d="M384 256L384 258L386 258L386 256L384 256z"/>
<path style="fill:#d53c43; stroke:none;" d="M424 256L424 258L426 258L426 256L424 256z"/>
<path style="fill:#e48186; stroke:none;" d="M426 256L426 258L428 258L428 256L426 256z"/>
<path style="fill:#f0b9bc; stroke:none;" d="M428 256L428 258L430 258L430 256L428 256z"/>
<path style="fill:#db585e; stroke:none;" d="M516 256L516 258L518 258L518 256L516 256z"/>
<path style="fill:#edacaf; stroke:none;" d="M542 256L542 258L544 258L544 256L542 256z"/>
<path style="fill:#e48287; stroke:none;" d="M610 256L610 258L612 258L612 256L610 256z"/>
<path style="fill:#f9e4e5; stroke:none;" d="M716 256L716 258L718 258L718 256L716 256z"/>
<path style="fill:#db585e; stroke:none;" d="M748 256L748 258L750 258L750 256L748 256z"/>
<path style="fill:#e48287; stroke:none;" d="M786 256L786 258L788 258L788 256L786 256z"/>
<path style="fill:#d53c43; stroke:none;" d="M826 256L826 258L828 258L828 256L826 256z"/>
<path style="fill:#e48186; stroke:none;" d="M828 256L828 258L830 258L830 256L828 256z"/>
<path style="fill:#f3c7c9; stroke:none;" d="M830 256L830 258L832 258L832 256L830 256z"/>
<path style="fill:#d84a51; stroke:none;" d="M918 256L918 258L920 258L920 256L918 256z"/>
<path style="fill:#de666c; stroke:none;" d="M218 258L218 260L220 260L220 258L218 258z"/>
<path style="fill:#d84a51; stroke:none;" d="M288 258L288 260L290 260L290 258L288 258z"/>
<path style="fill:#e17479; stroke:none;" d="M346 258L346 260L348 260L348 258L346 258z"/>
<path style="fill:#de666c; stroke:none;" d="M384 258L384 260L386 260L386 258L384 258z"/>
<path style="fill:#d53c43; stroke:none;" d="M420 258L420 260L422 260L422 258L420 258z"/>
<path style="fill:#edabae; stroke:none;" d="M422 258L422 260L424 260L424 258L422 258z"/>
<path style="fill:#f9e3e4; stroke:none;" d="M542 258L542 260L544 260L544 258L542 258z"/>
<path style="fill:#f0babc; stroke:none;" d="M578 258L578 260L580 260L580 258L578 258M610 258L610 260L612 260L612 258L610 258z"/>
<path style="fill:#edacaf; stroke:none;" d="M716 258L716 260L718 260L718 258L716 258z"/>
<path style="fill:#e79094; stroke:none;" d="M748 258L748 260L750 260L750 258L748 258z"/>
<path style="fill:#db585e; stroke:none;" d="M786 258L786 260L788 260L788 258L786 258M822 258L822 260L824 260L824 258L822 258z"/>
<path style="fill:#f0b9bc; stroke:none;" d="M824 258L824 260L826 260L826 258L824 258z"/>
<path style="fill:#d84a51; stroke:none;" d="M110 260L110 262L112 262L112 260L110 260M240 260L240 262L242 262L242 260L240 260z"/>
<path style="fill:#e17479; stroke:none;" d="M290 260L290 262L292 262L292 260L290 260z"/>
<path style="fill:#edacaf; stroke:none;" d="M346 260L346 262L348 262L348 260L346 260z"/>
<path style="fill:#ea9da1; stroke:none;" d="M418 260L418 262L420 262L420 260L418 260z"/>
<path style="fill:#f3c8ca; stroke:none;" d="M514 260L514 262L516 262L516 260L514 260z"/>
<path style="fill:#d53c43; stroke:none;" d="M540 260L540 262L542 262L542 260L540 260z"/>
<path style="fill:#e48287; stroke:none;" d="M578 260L578 262L580 262L580 260L578 260z"/>
<path style="fill:#e17479; stroke:none;" d="M716 260L716 262L718 262L718 260L716 260z"/>
<path style="fill:#f3c8ca; stroke:none;" d="M748 260L748 262L750 262L750 260L748 260z"/>
<path style="fill:#f0b9bc; stroke:none;" d="M820 260L820 262L822 262L822 260L820 260z"/>
<path style="fill:#f0babc; stroke:none;" d="M916 260L916 262L918 262L918 260L916 260z"/>
<path style="fill:#e17479; stroke:none;" d="M110 262L110 264L112 264L112 262L110 262z"/>
<path style="fill:#f6d6d7; stroke:none;" d="M216 262L216 264L218 264L218 262L216 262z"/>
<path style="fill:#d84a51; stroke:none;" d="M242 262L242 264L244 264L244 262L242 262z"/>
<path style="fill:#edabae; stroke:none;" d="M292 262L292 264L294 264L294 262L292 262z"/>
<path style="fill:#f9e3e4; stroke:none;" d="M346 262L346 264L348 264L348 262L346 262z"/>
<path style="fill:#f6d6d7; stroke:none;" d="M382 262L382 264L384 264L384 262L382 262z"/>
<path style="fill:#d84a51; stroke:none;" d="M414 262L414 264L416 264L416 262L414 262z"/>
<path style="fill:#f9e3e4; stroke:none;" d="M416 262L416 264L418 264L418 262L416 262z"/>
<path style="fill:#e79094; stroke:none;" d="M514 262L514 264L516 264L516 262L514 262z"/>
<path style="fill:#e17479; stroke:none;" d="M540 262L540 264L542 264L542 262L540 262z"/>
<path style="fill:#d84a51; stroke:none;" d="M578 262L578 264L580 264L580 262L578 262M608 262L608 264L610 264L610 262L608 262z"/>
<path style="fill:#d53c43; stroke:none;" d="M716 262L716 264L718 264L718 262L716 262z"/>
<path style="fill:#f3c8ca; stroke:none;" d="M784 262L784 264L786 264L786 262L784 262z"/>
<path style="fill:#db585e; stroke:none;" d="M816 262L816 264L818 264L818 262L816 262z"/>
<path style="fill:#e48287; stroke:none;" d="M916 262L916 264L918 264L918 262L916 262z"/>
<path style="fill:#edacaf; stroke:none;" d="M110 264L110 266L112 266L112 264L110 264z"/>
<path style="fill:#ea9ea1; stroke:none;" d="M216 264L216 266L218 266L218 264L216 264z"/>
<path style="fill:#d84a51; stroke:none;" d="M244 264L244 266L246 266L246 264L244 264z"/>
<path style="fill:#f6d5d7; stroke:none;" d="M294 264L294 266L296 266L296 264L294 264z"/>
<path style="fill:#d84a51; stroke:none;" d="M296 264L296 266L298 266L298 264L296 264z"/>
<path style="fill:#d53c43; stroke:none;" d="M344 264L344 266L346 266L346 264L344 264z"/>
<path style="fill:#edacaf; stroke:none;" d="M382 264L382 266L384 266L384 264L382 264z"/>
<path style="fill:#e17479; stroke:none;" d="M412 264L412 266L414 266L414 264L412 264z"/>
<path style="fill:#de666c; stroke:none;" d="M514 264L514 266L516 266L516 264L514 264z"/>
<path style="fill:#edacaf; stroke:none;" d="M540 264L540 266L542 266L542 264L540 264z"/>
<path style="fill:#e48287; stroke:none;" d="M608 264L608 266L610 266L610 264L608 264z"/>
<path style="fill:#f9e4e5; stroke:none;" d="M714 264L714 266L716 266L716 264L714 264z"/>
<path style="fill:#db585e; stroke:none;" d="M746 264L746 266L748 266L748 264L746 264z"/>
<path style="fill:#e79094; stroke:none;" d="M784 264L784 266L786 266L786 264L784 264z"/>
<path style="fill:#e17479; stroke:none;" d="M814 264L814 266L816 266L816 264L814 264z"/>
<path style="fill:#d84a51; stroke:none;" d="M916 264L916 266L918 266L918 264L916 264z"/>
<path style="fill:#f9e3e4; stroke:none;" d="M110 266L110 268L112 268L112 266L110 266z"/>
<path style="fill:#e17479; stroke:none;" d="M216 266L216 268L218 268L218 266L216 266z"/>
<path style="fill:#f6d6d7; stroke:none;" d="M248 266L248 268L250 268L250 266L248 266z"/>
<path style="fill:#e48186; stroke:none;" d="M298 266L298 268L300 268L300 266L298 266z"/>
<path style="fill:#e17479; stroke:none;" d="M344 266L344 268L346 268L346 266L344 266M382 266L382 268L384 268L384 266L382 266M410 266L410 268L412 268L412 266L410 266z"/>
<path style="fill:#f9e3e4; stroke:none;" d="M540 266L540 268L542 268L542 266L540 266z"/>
<path style="fill:#f3c8ca; stroke:none;" d="M576 266L576 268L578 268L578 266L576 266z"/>
<path style="fill:#f0babc; stroke:none;" d="M608 266L608 268L610 268L610 266L608 266z"/>
<path style="fill:#edacaf; stroke:none;" d="M714 266L714 268L716 268L716 266L714 266z"/>
<path style="fill:#e48287; stroke:none;" d="M746 266L746 268L748 268L748 266L746 266z"/>
<path style="fill:#db585e; stroke:none;" d="M784 266L784 268L786 268L786 266L784 266z"/>
<path style="fill:#e17479; stroke:none;" d="M812 266L812 268L814 268L814 266L812 266z"/>
<path style="fill:#d53c43; stroke:none;" d="M108 268L108 270L110 270L110 268L108 268M216 268L216 270L218 270L218 268L216 268z"/>
<path style="fill:#e79094; stroke:none;" d="M250 268L250 270L252 270L252 268L250 268z"/>
<path style="fill:#edabae; stroke:none;" d="M300 268L300 270L302 270L302 268L300 268z"/>
<path style="fill:#edacaf; stroke:none;" d="M344 268L344 270L346 270L346 268L344 268z"/>
<path style="fill:#d53c43; stroke:none;" d="M382 268L382 270L384 270L384 268L382 268z"/>
<path style="fill:#db585e; stroke:none;" d="M408 268L408 270L410 270L410 268L408 268z"/>
<path style="fill:#f6d6d7; stroke:none;" d="M512 268L512 270L514 270L514 268L512 268z"/>
<path style="fill:#d53c43; stroke:none;" d="M538 268L538 270L540 270L540 268L538 268z"/>
<path style="fill:#e79094; stroke:none;" d="M576 268L576 270L578 270L578 268L576 268z"/>
<path style="fill:#e17479; stroke:none;" d="M714 268L714 270L716 270L716 268L714 268z"/>
<path style="fill:#f0babc; stroke:none;" d="M746 268L746 270L748 270L748 268L746 268z"/>
<path style="fill:#e17479; stroke:none;" d="M810 268L810 270L812 270L812 268L810 268z"/>
<path style="fill:#f0babc; stroke:none;" d="M914 268L914 270L916 270L916 268L914 268z"/>
<path style="fill:#e17479; stroke:none;" d="M108 270L108 272L110 272L110 270L108 270z"/>
<path style="fill:#f9e4e5; stroke:none;" d="M214 270L214 272L216 272L216 270L214 270z"/>
<path style="fill:#d84a51; stroke:none;" d="M252 270L252 272L254 272L254 270L252 270z"/>
<path style="fill:#f6d6d7; stroke:none;" d="M254 270L254 272L256 272L256 270L254 270z"/>
<path style="fill:#f6d5d7; stroke:none;" d="M302 270L302 272L304 272L304 270L302 270z"/>
<path style="fill:#d53c43; stroke:none;" d="M304 270L304 272L306 272L306 270L304 270z"/>
<path style="fill:#f6d5d7; stroke:none;" d="M344 270L344 272L346 272L346 270L344 270z"/>
<path style="fill:#f9e4e5; stroke:none;" d="M380 270L380 272L382 272L382 270L380 270z"/>
<path style="fill:#f9e3e4; stroke:none;" d="M408 270L408 272L410 272L410 270L408 270z"/>
<path style="fill:#ea9ea1; stroke:none;" d="M512 270L512 272L514 272L514 270L512 270z"/>
<path style="fill:#de666c; stroke:none;" d="M538 270L538 272L540 272L540 270L538 270z"/>
<path style="fill:#db585e; stroke:none;" d="M576 270L576 272L578 272L578 270L576 270z"/>
<path style="fill:#d84a51; stroke:none;" d="M606 270L606 272L608 272L608 270L606 270M714 270L714 272L716 272L716 270L714 270z"/>
<path style="fill:#f3c8ca; stroke:none;" d="M782 270L782 272L784 272L784 270L782 270z"/>
<path style="fill:#d53c43; stroke:none;" d="M808 270L808 272L810 272L810 270L808 270z"/>
<path style="fill:#e48287; stroke:none;" d="M914 270L914 272L916 272L916 270L914 270z"/>
<path style="fill:#edacaf; stroke:none;" d="M108 272L108 274L110 274L110 272L108 272M214 272L214 274L216 274L216 272L214 272z"/>
<path style="fill:#e79094; stroke:none;" d="M256 272L256 274L258 274L258 272L256 272z"/>
<path style="fill:#d84a51; stroke:none;" d="M306 272L306 274L308 274L308 272L306 272z"/>
<path style="fill:#edacaf; stroke:none;" d="M380 272L380 274L382 274L382 272L380 272z"/>
<path style="fill:#ea9ea1; stroke:none;" d="M406 272L406 274L408 274L408 272L406 272z"/>
<path style="fill:#f9e4e5; stroke:none;" d="M444 272L444 274L446 274L446 272L444 272z"/>
<path style="fill:#ea9ea1; stroke:none;" d="M446 272L446 274L448 274L448 272L446 272z"/>
<path style="fill:#e17479; stroke:none;" d="M448 272L448 274L450 274L450 272L448 272z"/>
<path style="fill:#db585e; stroke:none;" d="M450 272L450 274L474 274L474 272L450 272z"/>
<path style="fill:#ea9ea1; stroke:none;" d="M474 272L474 274L476 274L476 272L474 272z"/>
<path style="fill:#de666c; stroke:none;" d="M512 272L512 274L514 274L514 272L512 272z"/>
<path style="fill:#ea9ea1; stroke:none;" d="M538 272L538 274L540 274L540 272L538 272z"/>
<path style="fill:#e48287; stroke:none;" d="M606 272L606 274L608 274L608 272L606 272z"/>
<path style="fill:#d84a51; stroke:none;" d="M744 272L744 274L746 274L746 272L744 272z"/>
<path style="fill:#ea9ea1; stroke:none;" d="M782 272L782 274L784 274L784 272L782 272z"/>
<path style="fill:#f3c7c9; stroke:none;" d="M808 272L808 274L810 274L810 272L808 272z"/>
<path style="fill:#f9e4e5; stroke:none;" d="M846 272L846 274L848 274L848 272L846 272z"/>
<path style="fill:#ea9ea1; stroke:none;" d="M848 272L848 274L850 274L850 272L848 272z"/>
<path style="fill:#db585e; stroke:none;" d="M850 272L850 274L876 274L876 272L850 272z"/>
<path style="fill:#edacaf; stroke:none;" d="M876 272L876 274L878 274L878 272L876 272z"/>
<path style="fill:#db585e; stroke:none;" d="M914 272L914 274L916 274L916 272L914 272z"/>
<path style="fill:#f6d5d7; stroke:none;" d="M108 274L108 276L110 276L110 274L108 274z"/>
<path style="fill:#edacaf; stroke:none;" d="M144 274L144 276L146 276L146 274L144 274z"/>
<path style="fill:#e79094; stroke:none;" d="M146 274L146 276L214 276L214 274L146 274z"/>
<path style="fill:#db585e; stroke:none;" d="M214 274L214 276L216 276L216 274L214 274z"/>
<path style="fill:#d53c43; stroke:none;" d="M258 274L258 276L260 276L260 274L258 274z"/>
<path style="fill:#f3c8ca; stroke:none;" d="M260 274L260 276L262 276L262 274L260 274z"/>
<path style="fill:#d84a51; stroke:none;" d="M308 274L308 276L310 276L310 274L308 274z"/>
<path style="fill:#de666c; stroke:none;" d="M342 274L342 276L344 276L344 274L342 274z"/>
<path style="fill:#e17479; stroke:none;" d="M380 274L380 276L382 276L382 274L380 274z"/>
<path style="fill:#db585e; stroke:none;" d="M404 274L404 276L406 276L406 274L404 274z"/>
<path style="fill:#f9e4e5; stroke:none;" d="M440 274L440 276L442 276L442 274L440 274z"/>
<path style="fill:#e17479; stroke:none;" d="M442 274L442 276L444 276L444 274L442 274z"/>
<path style="fill:#cf2028; stroke:none;" d="M434 286L434 288C437.737 292.774 438.401 297.756 445.289 299.539C457.707 302.754 472.552 284.866 474 274C464.046 274 448.113 270.852 439.75 277.225C436.68 279.564 436.238 283.141 434 286z"/>
<path style="fill:#f0babc; stroke:none;" d="M474 274L474 276L476 276L476 274L474 274z"/>
<path style="fill:#f6d5d7; stroke:none;" d="M538 274L538 276L540 276L540 274L538 274z"/>
<path style="fill:#f3c8ca; stroke:none;" d="M574 274L574 276L576 276L576 274L574 274z"/>
<path style="fill:#f0babc; stroke:none;" d="M606 274L606 276L608 276L608 274L606 274z"/>
<path style="fill:#f6d6d7; stroke:none;" d="M642 274L642 276L644 276L644 274L642 274z"/>
<path style="fill:#e79094; stroke:none;" d="M644 274L644 276L712 276L712 274L644 274z"/>
<path style="fill:#e17479; stroke:none;" d="M712 274L712 276L714 276L714 274L712 274z"/>
<path style="fill:#e48287; stroke:none;" d="M744 274L744 276L746 276L746 274L744 274z"/>
<path style="fill:#de666c; stroke:none;" d="M782 274L782 276L784 276L784 274L782 274z"/>
<path style="fill:#e17479; stroke:none;" d="M806 274L806 276L808 276L808 274L806 274z"/>
<path style="fill:#f9e4e5; stroke:none;" d="M842 274L842 276L844 276L844 274L842 274z"/>
<path style="fill:#db585e; stroke:none;" d="M844 274L844 276L846 276L846 274L844 274z"/>
<path style="fill:#cf2028; stroke:none;" d="M876 274C867.105 274 856.914 272.607 848.171 274.26C837.545 276.269 832.594 289.823 841.75 296.775C857.007 308.361 871.459 285.813 876 274z"/>
<path style="fill:#f6d5d7; stroke:none;" d="M876 274L876 276L878 276L878 274L876 274z"/>
<path style="fill:#d53c43; stroke:none;" d="M144 276L144 278L146 278L146 276L144 276z"/>
<path style="fill:#e48287; stroke:none;" d="M262 276L262 278L264 278L264 276L262 276z"/>
<path style="fill:#d84a51; stroke:none;" d="M310 276L310 278L312 278L312 276L310 276z"/>
<path style="fill:#ea9ea1; stroke:none;" d="M342 276L342 278L344 278L344 276L342 276z"/>
<path style="fill:#d84a51; stroke:none;" d="M380 276L380 278L382 278L382 276L380 276z"/>
<path style="fill:#edacaf; stroke:none;" d="M404 276L404 278L406 278L406 276L404 276z"/>
<path style="fill:#f0babc; stroke:none;" d="M438 276L438 278L440 278L440 276L438 276z"/>
<path style="fill:#f6d6d7; stroke:none;" d="M510 276L510 278L512 278L512 276L510 276z"/>
<path style="fill:#e79094; stroke:none;" d="M574 276L574 278L576 278L576 276L574 276z"/>
<path style="fill:#f9e3e4; stroke:none;" d="M606 276L606 278L608 278L608 276L606 276z"/>
<path style="fill:#e48287; stroke:none;" d="M642 276L642 278L644 278L644 276L642 276z"/>
<path style="fill:#f0babc; stroke:none;" d="M744 276L744 278L746 278L746 276L744 276z"/>
<path style="fill:#f3c7c9; stroke:none;" d="M806 276L806 278L808 278L808 276L806 276z"/>
<path style="fill:#edacaf; stroke:none;" d="M840 276L840 278L842 278L842 276L840 276z"/>
<path style="fill:#d53c43; stroke:none;" d="M874 276L874 278L876 278L876 276L874 276z"/>
<path style="fill:#f3c8ca; stroke:none;" d="M912 276L912 278L914 278L914 276L912 276z"/>
<path style="fill:#de666c; stroke:none;" d="M106 278L106 280L108 280L108 278L106 278z"/>
<path style="fill:#f9e4e5; stroke:none;" d="M142 278L142 280L144 280L144 278L142 278z"/>
<path style="fill:#d53c43; stroke:none;" d="M264 278L264 280L266 280L266 278L264 278z"/>
<path style="fill:#f6d6d7; stroke:none;" d="M266 278L266 280L268 280L268 278L266 278z"/>
<path style="fill:#f9e3e4; stroke:none;" d="M310 278L310 280L312 280L312 278L310 278z"/>
<path style="fill:#f6d5d7; stroke:none;" d="M342 278L342 280L344 280L344 278L342 278z"/>
<path style="fill:#f3c8ca; stroke:none;" d="M436 278L436 280L438 280L438 278L436 278z"/>
<path style="fill:#e17479; stroke:none;" d="M472 278L472 280L474 280L474 278L472 278z"/>
<path style="fill:#ea9ea1; stroke:none;" d="M510 278L510 280L512 280L512 278L510 278z"/>
<path style="fill:#de666c; stroke:none;" d="M536 278L536 280L538 280L538 278L536 278z"/>
<path style="fill:#db585e; stroke:none;" d="M574 278L574 280L576 280L576 278L574 278z"/>
<path style="fill:#d53c43; stroke:none;" d="M604 278L604 280L606 280L606 278L604 278z"/>
<path style="fill:#d84a51; stroke:none;" d="M642 278L642 280L644 280L644 278L642 278z"/>
<path style="fill:#f6d6d7; stroke:none;" d="M780 278L780 280L782 280L782 278L780 278z"/>
<path style="fill:#d53c43; stroke:none;" d="M804 278L804 280L806 280L806 278L804 278z"/>
<path style="fill:#edacaf; stroke:none;" d="M838 278L838 280L840 280L840 278L838 278z"/>
<path style="fill:#e79094; stroke:none;" d="M874 278L874 280L876 280L876 278L874 278M912 278L912 280L914 280L914 278L912 278z"/>
<path style="fill:#ea9ea1; stroke:none;" d="M106 280L106 282L108 282L108 280L106 280z"/>
<path style="fill:#f0babc; stroke:none;" d="M142 280L142 282L144 282L144 280L142 280z"/>
<path style="fill:#edacaf; stroke:none;" d="M268 280L268 282L270 282L270 280L268 280z"/>
<path style="fill:#f0b9bc; stroke:none;" d="M312 280L312 282L314 282L314 280L312 280z"/>
<path style="fill:#f0babc; stroke:none;" d="M378 280L378 282L380 282L380 280L378 280z"/>
<path style="fill:#e48287; stroke:none;" d="M402 280L402 282L404 282L404 280L402 280z"/>
<path style="fill:#f9e3e4; stroke:none;" d="M472 280L472 282L474 282L474 280L472 280z"/>
<path style="fill:#e17479; stroke:none;" d="M510 280L510 282L512 282L512 280L510 280z"/>
<path style="fill:#ea9ea1; stroke:none;" d="M536 280L536 282L538 282L538 280L536 280z"/>
<path style="fill:#e17479; stroke:none;" d="M604 280L604 282L606 282L606 280L604 280z"/>
<path style="fill:#d53c43; stroke:none;" d="M742 280L742 282L744 282L744 280L742 280z"/>
<path style="fill:#ea9ea1; stroke:none;" d="M780 280L780 282L782 282L782 280L780 280M804 280L804 282L806 282L806 280L804 280z"/>
<path style="fill:#f9e4e5; stroke:none;" d="M836 280L836 282L838 282L838 280L836 280z"/>
<path style="fill:#db585e; stroke:none;" d="M912 280L912 282L914 282L914 280L912 280z"/>
<path style="fill:#f6d5d7; stroke:none;" d="M106 282L106 284L108 284L108 282L106 282z"/>
<path style="fill:#e48287; stroke:none;" d="M142 282L142 284L144 284L144 282L142 282z"/>
<path style="fill:#e79094; stroke:none;" d="M270 282L270 284L272 284L272 282L270 282z"/>
<path style="fill:#de666c; stroke:none;" d="M314 282L314 284L316 284L316 282L314 282M340 282L340 284L342 284L342 282L340 282z"/>
<path style="fill:#e48287; stroke:none;" d="M378 282L378 284L380 284L380 282L378 282z"/>
<path style="fill:#f0babc; stroke:none;" d="M402 282L402 284L404 284L404 282L402 282z"/>
<path style="fill:#e79094; stroke:none;" d="M434 282L434 284L436 284L436 282L434 282z"/>
<path style="fill:#e48287; stroke:none;" d="M470 282L470 284L472 284L472 282L470 282z"/>
<path style="fill:#d53c43; stroke:none;" d="M510 282L510 284L512 284L512 282L510 282z"/>
<path style="fill:#f6d5d7; stroke:none;" d="M536 282L536 284L538 284L538 282L536 282z"/>
<path style="fill:#f3c8ca; stroke:none;" d="M572 282L572 284L574 284L574 282L572 282z"/>
<path style="fill:#edacaf; stroke:none;" d="M604 282L604 284L606 284L606 282L604 282z"/>
<path style="fill:#f3c8ca; stroke:none;" d="M640 282L640 284L642 284L642 282L640 282z"/>
<path style="fill:#e17479; stroke:none;" d="M742 282L742 284L744 284L744 282L742 282M780 282L780 284L782 284L782 282L780 282z"/>
<path style="fill:#f3c8ca; stroke:none;" d="M804 282L804 284L806 284L806 282L804 282z"/>
<path style="fill:#e17479; stroke:none;" d="M836 282L836 284L838 284L838 282L836 282z"/>
<path style="fill:#e79094; stroke:none;" d="M872 282L872 284L874 284L874 282L872 282z"/>
<path style="fill:#d84a51; stroke:none;" d="M142 284L142 286L144 286L144 284L142 284z"/>
<path style="fill:#edacaf; stroke:none;" d="M272 284L272 286L274 286L274 284L272 284z"/>
<path style="fill:#f9e3e4; stroke:none;" d="M314 284L314 286L316 286L316 284L314 284z"/>
<path style="fill:#e79094; stroke:none;" d="M340 284L340 286L342 286L342 284L340 284z"/>
<path style="fill:#d84a51; stroke:none;" d="M378 284L378 286L380 286L380 284L378 284z"/>
<path style="fill:#f9e3e4; stroke:none;" d="M402 284L402 286L404 286L404 284L402 284z"/>
<path style="fill:#db585e; stroke:none;" d="M434 284L434 286L436 286L436 284L434 284z"/>
<path style="fill:#d53c43; stroke:none;" d="M468 284L468 286L470 286L470 284L468 284z"/>
<path style="fill:#f9e4e5; stroke:none;" d="M508 284L508 286L510 286L510 284L508 284z"/>
<path style="fill:#ea9ea1; stroke:none;" d="M572 284L572 286L574 286L574 284L572 284z"/>
<path style="fill:#f9e3e4; stroke:none;" d="M604 284L604 286L606 286L606 284L604 284z"/>
<path style="fill:#e79094; stroke:none;" d="M640 284L640 286L642 286L642 284L640 284z"/>
<path style="fill:#edacaf; stroke:none;" d="M742 284L742 286L744 286L744 284L742 284z"/>
<path style="fill:#d53c43; stroke:none;" d="M780 284L780 286L782 286L782 284L780 284M836 284L836 286L838 286L838 284L836 284z"/>
<path style="fill:#d84a51; stroke:none;" d="M870 284L870 286L872 286L872 284L870 284z"/>
<path style="fill:#f3c8ca; stroke:none;" d="M910 284L910 286L912 286L912 284L910 284z"/>
<path style="fill:#db585e; stroke:none;" d="M104 286L104 288L106 288L106 286L104 286z"/>
<path style="fill:#d53c43; stroke:none;" d="M272 286L272 288L274 288L274 286L272 286z"/>
<path style="fill:#e17479; stroke:none;" d="M316 286L316 288L318 288L318 286L316 286z"/>
<path style="fill:#f3c8ca; stroke:none;" d="M340 286L340 288L342 288L342 286L340 286z"/>
<path style="fill:#f3c7c9; stroke:none;" d="M468 286L468 288L470 288L470 286L468 286z"/>
<path style="fill:#edacaf; stroke:none;" d="M508 286L508 288L510 288L510 286L508 286z"/>
<path style="fill:#db585e; stroke:none;" d="M534 286L534 288L536 288L536 286L534 286z"/>
<path style="fill:#de666c; stroke:none;" d="M572 286L572 288L574 288L574 286L572 286z"/>
<path style="fill:#d53c43; stroke:none;" d="M602 286L602 288L604 288L604 286L602 286z"/>
<path style="fill:#db585e; stroke:none;" d="M640 286L640 290L642 290L642 286L640 286z"/>
<path style="fill:#f9e3e4; stroke:none;" d="M742 286L742 288L744 288L744 286L742 286z"/>
<path style="fill:#f9e4e5; stroke:none;" d="M778 286L778 288L780 288L780 286L778 286z"/>
<path style="fill:#d53c43; stroke:none;" d="M802 286L802 288L804 288L804 286L802 286z"/>
<path style="fill:#f6d5d7; stroke:none;" d="M870 286L870 288L872 288L872 286L870 286z"/>
<path style="fill:#e79094; stroke:none;" d="M910 286L910 288L912 288L912 286L910 286M104 288L104 290L106 290L106 288L104 288z"/>
<path style="fill:#f3c8ca; stroke:none;" d="M274 288L274 290L276 290L276 288L274 288z"/>
<path style="fill:#f6d5d7; stroke:none;" d="M316 288L316 290L318 290L318 288L316 288z"/>
<path style="fill:#f3c8ca; stroke:none;" d="M376 288L376 290L378 290L378 288L376 288z"/>
<path style="fill:#db585e; stroke:none;" d="M400 288L400 294L402 294L402 288L400 288M434 288L434 290L436 290L436 288L434 288z"/>
<path style="fill:#edabae; stroke:none;" d="M466 288L466 290L468 290L468 288L466 288z"/>
<path style="fill:#e17479; stroke:none;" d="M508 288L508 290L510 290L510 288L508 288z"/>
<path style="fill:#e79094; stroke:none;" d="M534 288L534 290L536 290L536 288L534 288z"/>
<path style="fill:#e17479; stroke:none;" d="M602 288L602 290L604 290L604 288L602 288z"/>
<path style="fill:#d53c43; stroke:none;" d="M740 288L740 290L742 290L742 288L740 288z"/>
<path style="fill:#edacaf; stroke:none;" d="M778 288L778 290L780 290L780 288L778 288z"/>
<path style="fill:#db585e; stroke:none;" d="M802 288L802 296L804 296L804 288L802 288z"/>
<path style="fill:#edabae; stroke:none;" d="M868 288L868 290L870 290L870 288L868 288z"/>
<path style="fill:#db585e; stroke:none;" d="M910 288L910 290L912 290L912 288L910 288z"/>
<path style="fill:#f3c8ca; stroke:none;" d="M104 290L104 292L106 292L106 290L104 290z"/>
<path style="fill:#d53c43; stroke:none;" d="M142 290L142 292L144 292L144 290L142 290M318 290L318 292L320 292L320 290L318 290z"/>
<path style="fill:#db585e; stroke:none;" d="M338 290L338 292L340 292L340 290L338 290z"/>
<path style="fill:#e79094; stroke:none;" d="M376 290L376 296L378 296L378 290L376 290z"/>
<path style="fill:#e48287; stroke:none;" d="M434 290L434 292L436 292L436 290L434 290z"/>
<path style="fill:#e17479; stroke:none;" d="M464 290L464 292L466 292L466 290L464 290z"/>
<path style="fill:#d53c43; stroke:none;" d="M508 290L508 292L510 292L510 290L508 290z"/>
<path style="fill:#f3c8ca; stroke:none;" d="M534 290L534 292L536 292L536 290L534 290z"/>
<path style="fill:#f6d6d7; stroke:none;" d="M570 290L570 292L572 292L572 290L570 290z"/>
<path style="fill:#edacaf; stroke:none;" d="M602 290L602 292L604 292L604 290L602 290z"/>
<path style="fill:#e17479; stroke:none;" d="M640 290L640 292L642 292L642 290L640 290M740 290L740 292L742 292L742 290L740 290z"/>
<path style="fill:#e48287; stroke:none;" d="M778 290L778 296L780 296L780 290L778 290z"/>
<path style="fill:#e17479; stroke:none;" d="M836 290L836 292L838 292L838 290L836 290z"/>
<path style="fill:#ea9ea1; stroke:none;" d="M866 290L866 292L868 292L868 290L866 290M142 292L142 294L144 294L144 292L142 292z"/>
<path style="fill:#e17479; stroke:none;" d="M272 292L272 294L274 294L274 292L272 292z"/>
<path style="fill:#db585e; stroke:none;" d="M318 292L318 294L320 294L320 292L318 292z"/>
<path style="fill:#e79094; stroke:none;" d="M338 292L338 294L340 294L340 292L338 292z"/>
<path style="fill:#e48186; stroke:none;" d="M462 292L462 294L464 294L464 292L462 292z"/>
<path style="fill:#f9e4e5; stroke:none;" d="M506 292L506 294L508 294L508 292L506 292z"/>
<path style="fill:#ea9ea1; stroke:none;" d="M570 292L570 294L572 294L572 292L570 292z"/>
<path style="fill:#f9e3e4; stroke:none;" d="M602 292L602 294L604 294L604 292L602 292M640 292L640 294L642 294L642 292L640 292z"/>
<path style="fill:#edacaf; stroke:none;" d="M740 292L740 294L742 294L742 292L740 292z"/>
<path style="fill:#f9e3e4; stroke:none;" d="M836 292L836 294L838 294L838 292L836 292z"/>
<path style="fill:#edabae; stroke:none;" d="M864 292L864 294L866 294L866 292L864 292z"/>
<path style="fill:#f6d6d7; stroke:none;" d="M908 292L908 294L910 294L910 292L908 292z"/>
<path style="fill:#db585e; stroke:none;" d="M102 294L102 296L104 296L104 294L102 294z"/>
<path style="fill:#ea9da1; stroke:none;" d="M144 294L144 296L146 296L146 294L144 294z"/>
<path style="fill:#e78f93; stroke:none;" d="M270 294L270 296L272 296L272 294L270 294z"/>
<path style="fill:#e79094; stroke:none;" d="M318 294L318 300L320 300L320 294L318 294z"/>
<path style="fill:#f3c8ca; stroke:none;" d="M338 294L338 296L340 296L340 294L338 294z"/>
<path style="fill:#edabae; stroke:none;" d="M436 294L436 296L438 296L438 294L436 294M460 294L460 296L462 296L462 294L460 294z"/>
<path style="fill:#edacaf; stroke:none;" d="M506 294L506 296L508 296L508 294L506 294z"/>
<path style="fill:#db585e; stroke:none;" d="M532 294L532 296L534 296L534 294L532 294z"/>
<path style="fill:#de666c; stroke:none;" d="M570 294L570 296L572 296L572 294L570 294z"/>
<path style="fill:#d53c43; stroke:none;" d="M600 294L600 296L602 296L602 294L600 294z"/>
<path style="fill:#f3c7c9; stroke:none;" d="M642 294L642 296L644 296L644 294L642 294z"/>
<path style="fill:#d53c43; stroke:none;" d="M644 294L644 296L646 296L646 294L644 294z"/>
<path style="fill:#f6d5d7; stroke:none;" d="M740 294L740 296L742 296L742 294L740 294z"/>
<path style="fill:#ea9ea1; stroke:none;" d="M838 294L838 296L840 296L840 294L838 294z"/>
<path style="fill:#edabae; stroke:none;" d="M862 294L862 296L864 296L864 294L862 294z"/>
<path style="fill:#ea9ea1; stroke:none;" d="M908 294L908 296L910 296L910 294L908 294z"/>
<path style="fill:#e79094; stroke:none;" d="M102 296L102 298L104 298L104 296L102 296z"/>
<path style="fill:#edabae; stroke:none;" d="M148 296L148 298L150 298L150 296L148 296z"/>
<path style="fill:#e78f93; stroke:none;" d="M150 296L150 298L152 298L152 296L150 296z"/>
<path style="fill:#db575d; stroke:none;" d="M152 296L152 298L208 298L208 296L152 296z"/>
<path style="fill:#d53c43; stroke:none;" d="M208 296L208 298L210 298L210 296L208 296z"/>
<path style="fill:#e78f93; stroke:none;" d="M222 296L222 298L266 298L266 296L222 296z"/>
<path style="fill:#f3c7c9; stroke:none;" d="M266 296L266 298L268 298L268 296L266 296z"/>
<path style="fill:#f9e3e4; stroke:none;" d="M376 296L376 298L378 298L378 296L376 296z"/>
<path style="fill:#edabae; stroke:none;" d="M438 296L438 298L440 298L440 296L438 296z"/>
<path style="fill:#db585e; stroke:none;" d="M456 296L456 298L458 298L458 296L456 296z"/>
<path style="fill:#f6d5d7; stroke:none;" d="M458 296L458 298L460 298L460 296L458 296z"/>
<path style="fill:#e48287; stroke:none;" d="M506 296L506 298L508 298L508 296L506 296z"/>
<path style="fill:#e79094; stroke:none;" d="M532 296L532 298L534 298L534 296L532 296z"/>
<path style="fill:#e17479; stroke:none;" d="M600 296L600 298L602 298L602 296L600 296z"/>
<path style="fill:#f0b9bc; stroke:none;" d="M646 296L646 298L648 298L648 296L646 296z"/>
<path style="fill:#e78f93; stroke:none;" d="M648 296L648 298L650 298L650 296L648 296z"/>
<path style="fill:#db575d; stroke:none;" d="M650 296L650 298L708 298L708 296L650 296z"/>
<path style="fill:#f6d5d7; stroke:none;" d="M778 296L778 298L780 298L780 296L778 296z"/>
<path style="fill:#e17479; stroke:none;" d="M840 296L840 298L842 298L842 296L840 296z"/>
<path style="fill:#db585e; stroke:none;" d="M858 296L858 298L860 298L860 296L858 296z"/>
<path style="fill:#f9e3e4; stroke:none;" d="M860 296L860 298L862 298L862 296L860 296z"/>
<path style="fill:#de666c; stroke:none;" d="M908 296L908 298L910 298L910 296L908 296z"/>
<path style="fill:#f0babc; stroke:none;" d="M102 298L102 300L104 300L104 298L102 298z"/>
<path style="fill:#e17479; stroke:none;" d="M208 298L208 300L210 300L210 298L208 298z"/>
<path style="fill:#de666c; stroke:none;" d="M220 298L220 300L222 300L222 298L220 298z"/>
<path style="fill:#db585e; stroke:none;" d="M336 298L336 300L338 300L338 298L336 298z"/>
<path style="fill:#f3c7c9; stroke:none;" d="M378 298L378 300L380 300L380 298L378 298z"/>
<path style="fill:#d53c43; stroke:none;" d="M380 298L380 300L382 300L382 298L380 298z"/>
<path style="fill:#f3c8ca; stroke:none;" d="M402 298L402 300L404 300L404 298L402 298z"/>
<path style="fill:#f3c7c9; stroke:none;" d="M440 298L440 300L442 300L442 298L440 298z"/>
<path style="fill:#db585e; stroke:none;" d="M442 298L442 300L444 300L444 298L442 298z"/>
<path style="fill:#de656b; stroke:none;" d="M452 298L452 300L454 300L454 298L452 298z"/>
<path style="fill:#f0b9bc; stroke:none;" d="M454 298L454 300L456 300L456 298L454 298z"/>
<path style="fill:#d84a51; stroke:none;" d="M506 298L506 300L508 300L508 298L506 298z"/>
<path style="fill:#f3c8ca; stroke:none;" d="M532 298L532 300L534 300L534 298L532 298z"/>
<path style="fill:#f6d6d7; stroke:none;" d="M568 298L568 300L570 300L570 298L568 298z"/>
<path style="fill:#edacaf; stroke:none;" d="M600 298L600 300L602 300L602 298L600 298z"/>
<path style="fill:#f0babc; stroke:none;" d="M706 298L706 300L708 300L708 298L706 298z"/>
<path style="fill:#de666c; stroke:none;" d="M738 298L738 300L740 300L740 298L738 298z"/>
<path style="fill:#f0b9bc; stroke:none;" d="M780 298L780 300L782 300L782 298L780 298z"/>
<path style="fill:#d53c43; stroke:none;" d="M782 298L782 300L784 300L784 298L782 298z"/>
<path style="fill:#f6d6d7; stroke:none;" d="M804 298L804 300L806 300L806 298L804 298z"/>
<path style="fill:#f0b9bc; stroke:none;" d="M842 298L842 300L844 300L844 298L842 298z"/>
<path style="fill:#d84a51; stroke:none;" d="M844 298L844 300L846 300L846 298L844 298z"/>
<path style="fill:#e17378; stroke:none;" d="M854 298L854 300L856 300L856 298L854 298z"/>
<path style="fill:#f3c7c9; stroke:none;" d="M856 298L856 300L858 300L858 298L856 298z"/>
<path style="fill:#d84a51; stroke:none;" d="M208 300L208 302L210 302L210 300L208 300z"/>
<path style="fill:#ea9ea1; stroke:none;" d="M220 300L220 302L222 302L222 300L220 300z"/>
<path style="fill:#db585e; stroke:none;" d="M318 300L318 302L320 302L320 300L318 300z"/>
<path style="fill:#e48287; stroke:none;" d="M336 300L336 302L338 302L338 300L336 300z"/>
<path style="fill:#f6d5d7; stroke:none;" d="M382 300L382 302L384 302L384 300L382 300z"/>
<path style="fill:#f0b9bc; stroke:none;" d="M384 300L384 302L386 302L386 300L384 300z"/>
<path style="fill:#e78f93; stroke:none;" d="M386 300L386 302L388 302L388 300L386 300z"/>
<path style="fill:#e17479; stroke:none;" d="M388 300L388 302L390 302L390 300L388 300M402 300L402 302L404 302L404 300L402 300z"/>
<path style="fill:#f9e3e4; stroke:none;" d="M444 300L444 302L446 302L446 300L444 300z"/>
<path style="fill:#f3c7c9; stroke:none;" d="M446 300L446 302L448 302L448 300L446 300z"/>
<path style="fill:#f9e3e4; stroke:none;" d="M448 300L448 302L450 302L450 300L448 300z"/>
<path style="fill:#edacaf; stroke:none;" d="M568 300L568 302L570 302L570 300L568 300z"/>
<path style="fill:#f9e3e4; stroke:none;" d="M600 300L600 302L602 302L602 300L600 300z"/>
<path style="fill:#e48287; stroke:none;" d="M706 300L706 302L708 302L708 300L706 300z"/>
<path style="fill:#e79094; stroke:none;" d="M738 300L738 302L740 302L740 300L738 300z"/>
<path style="fill:#f6d5d7; stroke:none;" d="M784 300L784 302L786 302L786 300L784 300z"/>
<path style="fill:#edabae; stroke:none;" d="M786 300L786 302L788 302L788 300L786 300z"/>
<path style="fill:#e78f93; stroke:none;" d="M788 300L788 302L790 302L790 300L788 300z"/>
<path style="fill:#de666c; stroke:none;" d="M790 300L790 302L792 302L792 300L790 300z"/>
<path style="fill:#e79094; stroke:none;" d="M804 300L804 302L806 302L806 300L804 300z"/>
<path style="fill:#f9e3e4; stroke:none;" d="M846 300L846 302L848 302L848 300L846 300z"/>
<path style="fill:#f3c7c9; stroke:none;" d="M848 300L848 302L850 302L850 300L848 300z"/>
<path style="fill:#f9e3e4; stroke:none;" d="M850 300L850 302L852 302L852 300L850 300z"/>
<path style="fill:#f6d6d7; stroke:none;" d="M906 300L906 302L908 302L908 300L906 300z"/>
<path style="fill:#d84a51; stroke:none;" d="M100 302L100 304L102 304L102 302L100 302z"/>
<path style="fill:#f6d5d7; stroke:none;" d="M220 302L220 304L222 304L222 302L220 302z"/>
<path style="fill:#ea9ea1; stroke:none;" d="M336 302L336 304L338 304L338 302L336 302M388 302L388 304L390 304L390 302L388 302z"/>
<path style="fill:#f3c8ca; stroke:none;" d="M504 302L504 304L506 304L506 302L504 302z"/>
<path style="fill:#d84a51; stroke:none;" d="M530 302L530 304L532 304L532 302L530 302z"/>
<path style="fill:#de666c; stroke:none;" d="M568 302L568 304L570 304L570 302L568 302z"/>
<path style="fill:#d53c43; stroke:none;" d="M598 302L598 304L600 304L600 302L598 302z"/>
<path style="fill:#d84a51; stroke:none;" d="M706 302L706 304L708 304L708 302L706 302z"/>
<path style="fill:#f3c8ca; stroke:none;" d="M738 302L738 312L740 312L740 302L738 302z"/>
<path style="fill:#e48287; stroke:none;" d="M790 302L790 304L792 304L792 302L790 302z"/>
<path style="fill:#d53c43; stroke:none;" d="M804 302L804 304L806 304L806 302L804 302z"/>
<path style="fill:#edacaf; stroke:none;" d="M906 302L906 304L908 304L908 302L906 302z"/>
<path style="fill:#e48287; stroke:none;" d="M100 304L100 306L102 306L102 304L100 304z"/>
<path style="fill:#f0babc; stroke:none;" d="M206 304L206 306L208 306L208 304L206 304M316 304L316 306L318 306L318 304L316 304z"/>
<path style="fill:#f3c8ca; stroke:none;" d="M336 304L336 310L338 310L338 304L336 304z"/>
<path style="fill:#de666c; stroke:none;" d="M388 304L388 306L390 306L390 304L388 304z"/>
<path style="fill:#edacaf; stroke:none;" d="M404 304L404 306L406 306L406 304L404 304z"/>
<path style="fill:#e79094; stroke:none;" d="M504 304L504 306L506 306L506 304L504 304z"/>
<path style="fill:#e48287; stroke:none;" d="M530 304L530 306L532 306L532 304L530 304z"/>
<path style="fill:#de666c; stroke:none;" d="M598 304L598 306L600 306L600 304L598 304z"/>
<path style="fill:#db585e; stroke:none;" d="M790 304L790 306L792 306L792 304L790 304z"/>
<path style="fill:#edacaf; stroke:none;" d="M806 304L806 306L808 306L808 304L806 304z"/>
<path style="fill:#e48287; stroke:none;" d="M906 304L906 306L908 306L908 304L906 304z"/>
<path style="fill:#edacaf; stroke:none;" d="M100 306L100 308L102 308L102 306L100 306z"/>
<path style="fill:#e48287; stroke:none;" d="M206 306L206 308L208 308L208 306L206 306z"/>
<path style="fill:#de666c; stroke:none;" d="M218 306L218 308L220 308L220 306L218 306z"/>
<path style="fill:#e17479; stroke:none;" d="M316 306L316 308L318 308L318 306L316 306z"/>
<path style="fill:#d53c43; stroke:none;" d="M404 306L404 308L406 308L406 306L404 306z"/>
<path style="fill:#db585e; stroke:none;" d="M504 306L504 314L506 314L506 306L504 306z"/>
<path style="fill:#f0babc; stroke:none;" d="M530 306L530 308L532 308L532 306L530 306M566 306L566 308L568 308L568 306L566 306z"/>
<path style="fill:#e79094; stroke:none;" d="M598 306L598 308L600 308L600 306L598 306z"/>
<path style="fill:#f3c8ca; stroke:none;" d="M704 306L704 308L706 308L706 306L704 306z"/>
<path style="fill:#d53c43; stroke:none;" d="M806 306L806 308L808 308L808 306L806 306z"/>
<path style="fill:#db585e; stroke:none;" d="M906 306L906 308L908 308L908 306L906 306z"/>
<path style="fill:#f6d6d7; stroke:none;" d="M100 308L100 314L102 314L102 308L100 308z"/>
<path style="fill:#d84a51; stroke:none;" d="M206 308L206 310L208 310L208 308L206 308z"/>
<path style="fill:#ea9ea1; stroke:none;" d="M218 308L218 310L220 310L220 308L218 308z"/>
<path style="fill:#f3c8ca; stroke:none;" d="M314 308L314 310L316 310L316 308L314 308z"/>
<path style="fill:#f6d6d7; stroke:none;" d="M386 308L386 310L388 310L388 308L386 308z"/>
<path style="fill:#e48287; stroke:none;" d="M406 308L406 310L408 310L408 308L406 308z"/>
<path style="fill:#e17479; stroke:none;" d="M566 308L566 310L568 310L568 308L566 308z"/>
<path style="fill:#f3c8ca; stroke:none;" d="M598 308L598 314L600 314L600 308L598 308z"/>
<path style="fill:#e79094; stroke:none;" d="M704 308L704 310L706 310L706 308L704 308z"/>
<path style="fill:#f3c8ca; stroke:none;" d="M788 308L788 310L790 310L790 308L788 308z"/>
<path style="fill:#e79094; stroke:none;" d="M808 308L808 310L810 310L810 308L808 308z"/>
<path style="fill:#d53c43; stroke:none;" d="M906 308L906 310L908 310L908 308L906 308z"/>
<path style="fill:#f6d5d7; stroke:none;" d="M218 310L218 312L220 312L220 310L218 310z"/>
<path style="fill:#db585e; stroke:none;" d="M314 310L314 312L316 312L316 310L314 310z"/>
<path style="fill:#ea9ea1; stroke:none;" d="M336 310L336 312L338 312L338 310L336 310M386 310L386 312L388 312L388 310L386 310z"/>
<path style="fill:#f0babc; stroke:none;" d="M408 310L408 312L410 312L410 310L408 310z"/>
<path style="fill:#d84a51; stroke:none;" d="M528 310L528 312L530 312L530 310L528 310z"/>
<path style="fill:#db585e; stroke:none;" d="M704 310L704 312L706 312L706 310L704 310z"/>
<path style="fill:#e79094; stroke:none;" d="M788 310L788 312L790 312L790 310L788 310z"/>
<path style="fill:#f3c8ca; stroke:none;" d="M810 310L810 312L812 312L812 310L810 310z"/>
<path style="fill:#f0babc; stroke:none;" d="M204 312L204 314L206 314L206 312L204 312z"/>
<path style="fill:#e48287; stroke:none;" d="M312 312L312 314L314 314L314 312L312 312z"/>
<path style="fill:#de666c; stroke:none;" d="M336 312L336 314L338 314L338 312L336 312z"/>
<path style="fill:#e17479; stroke:none;" d="M386 312L386 314L388 314L388 312L386 312z"/>
<path style="fill:#f6d6d7; stroke:none;" d="M410 312L410 314L412 314L412 312L410 312z"/>
<path style="fill:#e48287; stroke:none;" d="M528 312L528 314L530 314L530 312L528 312z"/>
<path style="fill:#e79094; stroke:none;" d="M564 312L564 314L566 314L566 312L564 312z"/>
<path style="fill:#e17479; stroke:none;" d="M738 312L738 314L740 314L740 312L738 312z"/>
<path style="fill:#db585e; stroke:none;" d="M788 312L788 314L790 314L790 312L788 312z"/>
<path style="fill:#f6d6d7; stroke:none;" d="M812 312L812 314L814 314L814 312L812 312z"/>
<path style="fill:#d53c43; stroke:none;" d="M906 312L906 314L908 314L908 312L906 312z"/>
<path style="fill:#f0babc; stroke:none;" d="M100 314L100 316L102 316L102 314L100 314z"/>
<path style="fill:#e48287; stroke:none;" d="M204 314L204 316L206 316L206 314L204 314z"/>
<path style="fill:#db585e; stroke:none;" d="M216 314L216 316L218 316L218 314L216 314z"/>
<path style="fill:#edacaf; stroke:none;" d="M310 314L310 316L312 316L312 314L310 314z"/>
<path style="fill:#f6d6d7; stroke:none;" d="M338 314L338 316L340 316L340 314L338 314z"/>
<path style="fill:#d53c43; stroke:none;" d="M386 314L386 316L388 316L388 314L386 314z"/>
<path style="fill:#f6d6d7; stroke:none;" d="M412 314L412 316L414 316L414 314L412 314z"/>
<path style="fill:#e17479; stroke:none;" d="M504 314L504 316L506 316L506 314L504 314z"/>
<path style="fill:#f0babc; stroke:none;" d="M528 314L528 316L530 316L530 314L528 314z"/>
<path style="fill:#f9e4e5; stroke:none;" d="M562 314L562 316L564 316L564 314L562 314z"/>
<path style="fill:#ea9ea1; stroke:none;" d="M598 314L598 316L600 316L600 314L598 314z"/>
<path style="fill:#f3c8ca; stroke:none;" d="M702 314L702 316L704 316L704 314L702 314z"/>
<path style="fill:#f9e4e5; stroke:none;" d="M740 314L740 316L742 316L742 314L740 314z"/>
<path style="fill:#f6d6d7; stroke:none;" d="M814 314L814 316L816 316L816 314L814 314z"/>
<path style="fill:#de666c; stroke:none;" d="M906 314L906 316L908 316L908 314L906 314z"/>
<path style="fill:#db585e; stroke:none;" d="M100 316L100 318L102 318L102 316L100 316z"/>
<path style="fill:#d84a51; stroke:none;" d="M204 316L204 318L206 318L206 316L204 316z"/>
<path style="fill:#e79094; stroke:none;" d="M216 316L216 318L218 318L218 316L216 316z"/>
<path style="fill:#e17479; stroke:none;" d="M308 316L308 318L310 318L310 316L308 316z"/>
<path style="fill:#d84a51; stroke:none;" d="M338 316L338 318L340 318L340 316L338 316z"/>
<path style="fill:#f9e4e5; stroke:none;" d="M384 316L384 318L386 318L386 316L384 316z"/>
<path style="fill:#edacaf; stroke:none;" d="M414 316L414 318L416 318L416 316L414 316z"/>
<path style="fill:#f3c7c9; stroke:none;" d="M504 316L504 318L506 318L506 316L504 316z"/>
<path style="fill:#d84a51; stroke:none;" d="M562 316L562 318L564 318L564 316L562 316z"/>
<path style="fill:#d53c43; stroke:none;" d="M598 316L598 318L600 318L600 316L598 316z"/>
<path style="fill:#e79094; stroke:none;" d="M702 316L702 318L704 318L704 316L702 316z"/>
<path style="fill:#d84a51; stroke:none;" d="M740 316L740 318L742 318L742 316L740 316z"/>
<path style="fill:#f3c8ca; stroke:none;" d="M786 316L786 318L788 318L788 316L786 316z"/>
<path style="fill:#f0babc; stroke:none;" d="M816 316L816 318L818 318L818 316L816 316z"/>
<path style="fill:#edacaf; stroke:none;" d="M906 316L906 318L908 318L908 316L906 316z"/>
<path style="fill:#e17479; stroke:none;" d="M102 318L102 320L104 320L104 318L102 318z"/>
<path style="fill:#f3c8ca; stroke:none;" d="M216 318L216 320L218 320L218 318L216 318z"/>
<path style="fill:#e79094; stroke:none;" d="M304 318L304 320L306 320L306 318L304 318z"/>
<path style="fill:#d84a51; stroke:none;" d="M340 318L340 320L342 320L342 318L340 318z"/>
<path style="fill:#f6d6d7; stroke:none;" d="M342 318L342 320L344 320L344 318L342 318z"/>
<path style="fill:#edacaf; stroke:none;" d="M384 318L384 320L386 320L386 318L384 318z"/>
<path style="fill:#e48287; stroke:none;" d="M416 318L416 320L418 320L418 318L416 318z"/>
<path style="fill:#e79094; stroke:none;" d="M460 318L460 320L462 320L462 318L460 318z"/>
<path style="fill:#d53c43; stroke:none;" d="M462 318L462 320L464 320L464 318L462 318z"/>
<path style="fill:#ea9ea1; stroke:none;" d="M464 318L464 320L466 320L466 318L464 318z"/>
<path style="fill:#e17479; stroke:none;" d="M506 318L506 320L508 320L508 318L506 318z"/>
<path style="fill:#edabae; stroke:none;" d="M526 318L526 320L528 320L528 318L526 318z"/>
<path style="fill:#d84a51; stroke:none;" d="M560 318L560 320L562 320L562 318L560 318z"/>
<path style="fill:#db585e; stroke:none;" d="M600 318L600 320L602 320L602 318L600 318M702 318L702 320L704 320L704 318L702 318z"/>
<path style="fill:#d84a51; stroke:none;" d="M742 318L742 320L744 320L744 318L742 318z"/>
<path style="fill:#f9e4e5; stroke:none;" d="M744 318L744 320L746 320L746 318L744 318z"/>
<path style="fill:#e79094; stroke:none;" d="M786 318L786 320L788 320L788 318L786 318z"/>
<path style="fill:#e48287; stroke:none;" d="M818 318L818 320L820 320L820 318L818 318z"/>
<path style="fill:#f9e4e5; stroke:none;" d="M860 318L860 320L862 320L862 318L860 318z"/>
<path style="fill:#e17479; stroke:none;" d="M862 318L862 320L864 320L864 318L862 318z"/>
<path style="fill:#d53c43; stroke:none;" d="M864 318L864 320L866 320L866 318L864 318z"/>
<path style="fill:#f0babc; stroke:none;" d="M866 318L866 320L868 320L868 318L866 318z"/>
<path style="fill:#db585e; stroke:none;" d="M908 318L908 320L910 320L910 318L908 318z"/>
<path style="fill:#e48287; stroke:none;" d="M106 320L106 322L108 322L108 320L106 320z"/>
<path style="fill:#f3c8ca; stroke:none;" d="M108 320L108 322L110 322L110 320L108 320M202 320L202 322L204 322L204 320L202 320M296 320L296 322L298 322L298 320L296 320z"/>
<path style="fill:#ea9ea1; stroke:none;" d="M298 320L298 322L300 322L300 320L298 320z"/>
<path style="fill:#de666c; stroke:none;" d="M300 320L300 322L302 322L302 320L300 320z"/>
<path style="fill:#db585e; stroke:none;" d="M344 320L344 322L346 322L346 320L344 320z"/>
<path style="fill:#edacaf; stroke:none;" d="M346 320L346 322L348 322L348 320L346 320z"/>
<path style="fill:#e17479; stroke:none;" d="M384 320L384 322L386 322L386 320L384 320z"/>
<path style="fill:#edacaf; stroke:none;" d="M420 320L420 322L422 322L422 320L420 320z"/>
<path style="fill:#e79094; stroke:none;" d="M456 320L456 322L458 322L458 320L456 320z"/>
<path style="fill:#db585e; stroke:none;" d="M466 320L466 322L468 322L468 320L466 320z"/>
<path style="fill:#f0babc; stroke:none;" d="M468 320L468 322L470 322L470 320L468 320z"/>
<path style="fill:#d84a51; stroke:none;" d="M508 320L508 322L510 322L510 320L508 320z"/>
<path style="fill:#edabae; stroke:none;" d="M524 320L524 322L526 322L526 320L524 320z"/>
<path style="fill:#edacaf; stroke:none;" d="M556 320L556 322L558 322L558 320L556 320z"/>
<path style="fill:#d53c43; stroke:none;" d="M558 320L558 322L560 322L560 320L558 320z"/>
<path style="fill:#e48287; stroke:none;" d="M604 320L604 322L606 322L606 320L604 320z"/>
<path style="fill:#f3c8ca; stroke:none;" d="M606 320L606 322L608 322L608 320L606 320z"/>
<path style="fill:#e17479; stroke:none;" d="M746 320L746 322L748 322L748 320L746 320z"/>
<path style="fill:#f0babc; stroke:none;" d="M748 320L748 322L750 322L750 320L748 320z"/>
<path style="fill:#de666c; stroke:none;" d="M786 320L786 322L788 322L788 320L786 320z"/>
<path style="fill:#d53c43; stroke:none;" d="M820 320L820 322L822 322L822 320L820 320z"/>
<path style="fill:#edacaf; stroke:none;" d="M822 320L822 322L824 322L824 320L822 320z"/>
<path style="fill:#e79094; stroke:none;" d="M858 320L858 322L860 322L860 320L858 320z"/>
<path style="fill:#db585e; stroke:none;" d="M868 320L868 322L870 322L870 320L868 320z"/>
<path style="fill:#f3c8ca; stroke:none;" d="M870 320L870 322L872 322L872 320L870 320z"/>
<path style="fill:#d84a51; stroke:none;" d="M910 320L910 322L912 322L912 320L910 320z"/>
<path style="fill:#db585e; stroke:none;" d="M112 322L112 324L120 324L120 322L112 322z"/>
<path style="fill:#e79094; stroke:none;" d="M120 322L120 324L202 324L202 322L120 322z"/>
<path style="fill:#db585e; stroke:none;" d="M202 322L202 324L204 324L204 322L202 322M216 322L216 324L292 324L292 322L216 322M352 322L352 324L384 324L384 322L352 322z"/>
<path style="fill:#d53c43; stroke:none;" d="M422 322L422 324L424 324L424 322L422 322z"/>
<path style="fill:#ea9ea1; stroke:none;" d="M424 322L424 324L426 324L426 322L424 322z"/>
<path style="fill:#f9e4e5; stroke:none;" d="M426 322L426 324L428 324L428 322L426 322z"/>
<path style="fill:#ea9ea1; stroke:none;" d="M452 322L452 324L454 324L454 322L452 322z"/>
<path style="fill:#d53c43; stroke:none;" d="M454 322L454 324L456 324L456 322L454 322M470 322L470 324L472 324L472 322L470 322z"/>
<path style="fill:#db585e; stroke:none;" d="M472 322L472 324L474 324L474 322L472 322z"/>
<path style="fill:#e79094; stroke:none;" d="M474 322L474 324L510 324L510 322L474 322z"/>
<path style="fill:#d53c43; stroke:none;" d="M522 322L522 324L524 324L524 322L522 322z"/>
<path style="fill:#db585e; stroke:none;" d="M524 322L524 324L554 324L554 322L524 322z"/>
<path style="fill:#d53c43; stroke:none;" d="M610 322L610 324L612 324L612 322L610 322z"/>
<path style="fill:#db585e; stroke:none;" d="M612 322L612 324L618 324L618 322L612 322z"/>
<path style="fill:#e79094; stroke:none;" d="M618 322L618 324L700 324L700 322L618 322z"/>
<path style="fill:#e17479; stroke:none;" d="M700 322L700 324L702 324L702 322L700 322z"/>
<path style="fill:#db585e; stroke:none;" d="M754 322L754 324L786 324L786 322L754 322z"/>
<path style="fill:#d53c43; stroke:none;" d="M824 322L824 324L826 324L826 322L824 322z"/>
<path style="fill:#ea9ea1; stroke:none;" d="M826 322L826 324L828 324L828 322L826 322z"/>
<path style="fill:#e79094; stroke:none;" d="M854 322L854 324L856 324L856 322L854 322z"/>
<path style="fill:#d53c43; stroke:none;" d="M872 322L872 324L874 324L874 322L872 322z"/>
<path style="fill:#db585e; stroke:none;" d="M874 322L874 324L876 324L876 322L874 322z"/>
<path style="fill:#e79094; stroke:none;" d="M876 322L876 324L912 324L912 322L876 322z"/>
<path style="fill:#d84a51; stroke:none;" d="M428 324L428 326L430 326L430 324L428 324z"/>
<path style="fill:#e48287; stroke:none;" d="M430 324L430 326L432 326L432 324L430 324z"/>
<path style="fill:#edacaf; stroke:none;" d="M432 324L432 326L434 326L434 324L432 324z"/>
<path style="fill:#f3c8ca; stroke:none;" d="M434 324L434 326L444 326L444 324L434 324z"/>
<path style="fill:#edacaf; stroke:none;" d="M444 324L444 326L446 326L446 324L444 324z"/>
<path style="fill:#e79094; stroke:none;" d="M446 324L446 326L448 326L448 324L446 324z"/>
<path style="fill:#db585e; stroke:none;" d="M448 324L448 326L450 326L450 324L448 324z"/>
<path style="fill:#d84a51; stroke:none;" d="M830 324L830 326L832 326L832 324L830 324z"/>
<path style="fill:#e79094; stroke:none;" d="M832 324L832 326L834 326L834 324L832 324z"/>
<path style="fill:#edacaf; stroke:none;" d="M834 324L834 326L836 326L836 324L834 324z"/>
<path style="fill:#f3c8ca; stroke:none;" d="M836 324L836 326L846 326L846 324L836 324z"/>
<path style="fill:#e79094; stroke:none;" d="M846 324L846 326L850 326L850 324L846 324z"/>
<path style="fill:#db585e; stroke:none;" d="M850 324L850 326L852 326L852 324L850 324z"/>
</svg>
